G04 EAGLE Gerber X2 export*
%TF.Part,Single*%
%TF.FileFunction,Copper,L1,Top,Mixed*%
%TF.FilePolarity,Positive*%
%TF.GenerationSoftware,Autodesk,EAGLE,8.7.0*%
%TF.CreationDate,2018-03-25T19:34:28Z*%
G75*
%MOMM*%
%FSLAX34Y34*%
%LPD*%
%AMOC8*
5,1,8,0,0,1.08239X$1,22.5*%
G01*
%ADD10C,0.914400*%
%ADD11C,1.879600*%
%ADD12C,0.960000*%
%ADD13C,0.960000*%
%ADD14R,2.540000X5.080000*%
%ADD15C,0.152400*%
%ADD16C,0.609600*%

G36*
X544214Y24655D02*
X544214Y24655D01*
X544311Y24664D01*
X544335Y24674D01*
X544360Y24679D01*
X544446Y24724D01*
X544535Y24764D01*
X544555Y24781D01*
X544578Y24794D01*
X544645Y24864D01*
X544717Y24930D01*
X544729Y24953D01*
X544747Y24972D01*
X544788Y25060D01*
X544835Y25146D01*
X544840Y25171D01*
X544851Y25195D01*
X544861Y25292D01*
X544879Y25388D01*
X544875Y25414D01*
X544878Y25439D01*
X544857Y25535D01*
X544843Y25631D01*
X544831Y25654D01*
X544826Y25680D01*
X544775Y25764D01*
X544731Y25850D01*
X544713Y25869D01*
X544699Y25891D01*
X544625Y25954D01*
X544556Y26023D01*
X544527Y26038D01*
X544512Y26051D01*
X544482Y26063D01*
X544434Y26089D01*
X540445Y30079D01*
X538289Y35283D01*
X538289Y40917D01*
X540445Y46121D01*
X544429Y50105D01*
X549633Y52261D01*
X555267Y52261D01*
X560471Y50105D01*
X564466Y46111D01*
X564498Y46058D01*
X564544Y45972D01*
X564562Y45954D01*
X564576Y45932D01*
X564652Y45870D01*
X564722Y45803D01*
X564746Y45792D01*
X564766Y45775D01*
X564857Y45740D01*
X564945Y45699D01*
X564971Y45696D01*
X564995Y45687D01*
X565093Y45683D01*
X565189Y45672D01*
X565215Y45678D01*
X565241Y45677D01*
X565335Y45704D01*
X565430Y45724D01*
X565452Y45738D01*
X565477Y45745D01*
X565557Y45801D01*
X565641Y45851D01*
X565658Y45871D01*
X565679Y45885D01*
X565738Y45964D01*
X565801Y46038D01*
X565811Y46062D01*
X565826Y46083D01*
X565856Y46175D01*
X565893Y46266D01*
X565896Y46298D01*
X565902Y46317D01*
X565902Y46350D01*
X565911Y46432D01*
X565911Y461568D01*
X565896Y461664D01*
X565886Y461761D01*
X565876Y461785D01*
X565872Y461810D01*
X565826Y461896D01*
X565786Y461985D01*
X565769Y462005D01*
X565756Y462028D01*
X565686Y462095D01*
X565620Y462166D01*
X565597Y462179D01*
X565578Y462197D01*
X565490Y462238D01*
X565404Y462285D01*
X565379Y462290D01*
X565355Y462301D01*
X565258Y462311D01*
X565162Y462329D01*
X565136Y462325D01*
X565111Y462328D01*
X565015Y462307D01*
X564919Y462293D01*
X564896Y462281D01*
X564870Y462276D01*
X564787Y462226D01*
X564700Y462181D01*
X564681Y462163D01*
X564659Y462149D01*
X564596Y462075D01*
X564528Y462006D01*
X564512Y461977D01*
X564499Y461962D01*
X564487Y461932D01*
X564461Y461885D01*
X560471Y457895D01*
X555267Y455739D01*
X549633Y455739D01*
X544429Y457895D01*
X540445Y461879D01*
X538289Y467083D01*
X538289Y472717D01*
X540445Y477921D01*
X544439Y481916D01*
X544492Y481948D01*
X544578Y481994D01*
X544596Y482012D01*
X544618Y482026D01*
X544680Y482102D01*
X544747Y482172D01*
X544758Y482196D01*
X544775Y482216D01*
X544810Y482307D01*
X544851Y482395D01*
X544854Y482421D01*
X544863Y482445D01*
X544867Y482543D01*
X544878Y482639D01*
X544872Y482665D01*
X544873Y482691D01*
X544846Y482785D01*
X544826Y482880D01*
X544812Y482902D01*
X544805Y482927D01*
X544749Y483007D01*
X544699Y483091D01*
X544679Y483108D01*
X544665Y483129D01*
X544586Y483188D01*
X544512Y483251D01*
X544488Y483261D01*
X544467Y483276D01*
X544375Y483306D01*
X544284Y483343D01*
X544252Y483346D01*
X544233Y483352D01*
X544200Y483352D01*
X544118Y483361D01*
X46432Y483361D01*
X46336Y483346D01*
X46239Y483336D01*
X46215Y483326D01*
X46190Y483322D01*
X46104Y483276D01*
X46015Y483236D01*
X45995Y483219D01*
X45972Y483206D01*
X45905Y483136D01*
X45834Y483070D01*
X45821Y483047D01*
X45803Y483028D01*
X45762Y482940D01*
X45715Y482854D01*
X45710Y482829D01*
X45699Y482805D01*
X45689Y482708D01*
X45671Y482612D01*
X45675Y482586D01*
X45672Y482561D01*
X45693Y482465D01*
X45707Y482369D01*
X45719Y482346D01*
X45724Y482320D01*
X45774Y482237D01*
X45819Y482150D01*
X45837Y482131D01*
X45851Y482109D01*
X45925Y482046D01*
X45994Y481978D01*
X46023Y481962D01*
X46038Y481949D01*
X46068Y481937D01*
X46115Y481911D01*
X50105Y477921D01*
X52261Y472717D01*
X52261Y467083D01*
X50105Y461879D01*
X46121Y457895D01*
X40917Y455739D01*
X35283Y455739D01*
X30079Y457895D01*
X26085Y461889D01*
X26052Y461942D01*
X26006Y462028D01*
X25988Y462046D01*
X25974Y462068D01*
X25899Y462130D01*
X25828Y462197D01*
X25804Y462208D01*
X25784Y462225D01*
X25693Y462260D01*
X25605Y462301D01*
X25579Y462304D01*
X25555Y462313D01*
X25457Y462317D01*
X25361Y462328D01*
X25335Y462322D01*
X25309Y462323D01*
X25216Y462296D01*
X25120Y462276D01*
X25098Y462262D01*
X25073Y462255D01*
X24993Y462199D01*
X24909Y462149D01*
X24892Y462130D01*
X24871Y462115D01*
X24813Y462036D01*
X24749Y461962D01*
X24739Y461938D01*
X24724Y461917D01*
X24694Y461825D01*
X24657Y461734D01*
X24654Y461702D01*
X24648Y461683D01*
X24648Y461650D01*
X24639Y461568D01*
X24639Y46432D01*
X24655Y46336D01*
X24664Y46239D01*
X24674Y46215D01*
X24679Y46190D01*
X24724Y46104D01*
X24764Y46015D01*
X24781Y45995D01*
X24794Y45972D01*
X24864Y45905D01*
X24930Y45833D01*
X24953Y45821D01*
X24972Y45803D01*
X25060Y45762D01*
X25146Y45715D01*
X25171Y45710D01*
X25195Y45699D01*
X25292Y45689D01*
X25388Y45671D01*
X25414Y45675D01*
X25439Y45672D01*
X25535Y45693D01*
X25631Y45707D01*
X25654Y45719D01*
X25680Y45724D01*
X25764Y45775D01*
X25850Y45819D01*
X25869Y45837D01*
X25891Y45851D01*
X25954Y45925D01*
X26023Y45994D01*
X26038Y46023D01*
X26051Y46038D01*
X26063Y46068D01*
X26089Y46116D01*
X30079Y50105D01*
X35283Y52261D01*
X40917Y52261D01*
X46121Y50105D01*
X50105Y46121D01*
X52261Y40917D01*
X52261Y35283D01*
X50105Y30079D01*
X46111Y26085D01*
X46058Y26052D01*
X45972Y26006D01*
X45954Y25988D01*
X45932Y25974D01*
X45870Y25899D01*
X45803Y25828D01*
X45792Y25804D01*
X45775Y25784D01*
X45740Y25693D01*
X45699Y25605D01*
X45696Y25579D01*
X45687Y25555D01*
X45683Y25457D01*
X45672Y25361D01*
X45678Y25335D01*
X45677Y25309D01*
X45704Y25216D01*
X45724Y25120D01*
X45738Y25098D01*
X45745Y25073D01*
X45801Y24993D01*
X45851Y24909D01*
X45870Y24892D01*
X45885Y24871D01*
X45964Y24813D01*
X46038Y24749D01*
X46062Y24739D01*
X46083Y24724D01*
X46175Y24694D01*
X46266Y24657D01*
X46298Y24654D01*
X46317Y24648D01*
X46350Y24648D01*
X46432Y24639D01*
X544118Y24639D01*
X544214Y24655D01*
G37*
%LPC*%
G36*
X48523Y131426D02*
X48523Y131426D01*
X44315Y133169D01*
X41094Y136390D01*
X39351Y140598D01*
X39351Y145152D01*
X41094Y149360D01*
X44315Y152581D01*
X48523Y154324D01*
X53077Y154324D01*
X57285Y152581D01*
X60506Y149360D01*
X60885Y148444D01*
X60947Y148344D01*
X61007Y148244D01*
X61012Y148240D01*
X61015Y148235D01*
X61105Y148160D01*
X61194Y148084D01*
X61200Y148082D01*
X61205Y148078D01*
X61313Y148036D01*
X61422Y147992D01*
X61430Y147991D01*
X61434Y147990D01*
X61452Y147989D01*
X61589Y147974D01*
X86215Y147974D01*
X86235Y147977D01*
X86254Y147975D01*
X86356Y147997D01*
X86458Y148013D01*
X86475Y148023D01*
X86495Y148027D01*
X86584Y148080D01*
X86675Y148129D01*
X86689Y148143D01*
X86706Y148153D01*
X86773Y148232D01*
X86845Y148307D01*
X86853Y148325D01*
X86866Y148340D01*
X86905Y148436D01*
X86948Y148530D01*
X86950Y148550D01*
X86958Y148568D01*
X86976Y148735D01*
X86976Y197340D01*
X86973Y197360D01*
X86975Y197379D01*
X86953Y197481D01*
X86937Y197583D01*
X86927Y197600D01*
X86923Y197620D01*
X86870Y197709D01*
X86821Y197800D01*
X86807Y197814D01*
X86797Y197831D01*
X86718Y197898D01*
X86643Y197970D01*
X86625Y197978D01*
X86610Y197991D01*
X86514Y198030D01*
X86420Y198073D01*
X86400Y198075D01*
X86382Y198083D01*
X86215Y198101D01*
X61589Y198101D01*
X61474Y198082D01*
X61358Y198065D01*
X61352Y198063D01*
X61346Y198062D01*
X61243Y198007D01*
X61139Y197954D01*
X61134Y197949D01*
X61129Y197946D01*
X61048Y197861D01*
X60966Y197778D01*
X60963Y197772D01*
X60959Y197768D01*
X60951Y197751D01*
X60885Y197631D01*
X60506Y196715D01*
X57285Y193494D01*
X53077Y191751D01*
X48523Y191751D01*
X44315Y193494D01*
X41094Y196715D01*
X39351Y200923D01*
X39351Y205477D01*
X41094Y209685D01*
X44315Y212906D01*
X48523Y214649D01*
X53077Y214649D01*
X57285Y212906D01*
X60506Y209685D01*
X60885Y208769D01*
X60947Y208669D01*
X61007Y208569D01*
X61012Y208565D01*
X61015Y208560D01*
X61105Y208485D01*
X61194Y208409D01*
X61200Y208407D01*
X61204Y208403D01*
X61313Y208361D01*
X61422Y208317D01*
X61429Y208316D01*
X61434Y208315D01*
X61452Y208314D01*
X61589Y208299D01*
X86215Y208299D01*
X86235Y208302D01*
X86254Y208300D01*
X86356Y208322D01*
X86458Y208338D01*
X86475Y208348D01*
X86495Y208352D01*
X86584Y208405D01*
X86675Y208454D01*
X86689Y208468D01*
X86706Y208478D01*
X86773Y208557D01*
X86845Y208632D01*
X86853Y208650D01*
X86866Y208665D01*
X86905Y208761D01*
X86948Y208855D01*
X86950Y208875D01*
X86958Y208893D01*
X86976Y209060D01*
X86976Y314815D01*
X86973Y314835D01*
X86975Y314854D01*
X86953Y314956D01*
X86937Y315058D01*
X86927Y315075D01*
X86923Y315095D01*
X86870Y315184D01*
X86821Y315275D01*
X86807Y315289D01*
X86797Y315306D01*
X86718Y315373D01*
X86643Y315445D01*
X86625Y315453D01*
X86610Y315466D01*
X86514Y315505D01*
X86420Y315548D01*
X86400Y315550D01*
X86382Y315558D01*
X86215Y315576D01*
X61589Y315576D01*
X61474Y315557D01*
X61358Y315540D01*
X61352Y315538D01*
X61346Y315537D01*
X61243Y315482D01*
X61139Y315429D01*
X61134Y315424D01*
X61129Y315421D01*
X61048Y315336D01*
X60966Y315253D01*
X60963Y315247D01*
X60959Y315243D01*
X60951Y315226D01*
X60885Y315106D01*
X60506Y314190D01*
X57285Y310969D01*
X53077Y309226D01*
X48523Y309226D01*
X44315Y310969D01*
X41094Y314190D01*
X39351Y318398D01*
X39351Y322952D01*
X41094Y327160D01*
X44315Y330381D01*
X48523Y332124D01*
X53077Y332124D01*
X57285Y330381D01*
X60506Y327160D01*
X60885Y326244D01*
X60947Y326144D01*
X61007Y326044D01*
X61012Y326040D01*
X61015Y326035D01*
X61105Y325960D01*
X61194Y325884D01*
X61200Y325882D01*
X61204Y325878D01*
X61313Y325836D01*
X61422Y325792D01*
X61429Y325791D01*
X61434Y325790D01*
X61452Y325789D01*
X61589Y325774D01*
X86215Y325774D01*
X86235Y325777D01*
X86254Y325775D01*
X86356Y325797D01*
X86458Y325813D01*
X86475Y325823D01*
X86495Y325827D01*
X86584Y325880D01*
X86675Y325929D01*
X86689Y325943D01*
X86706Y325953D01*
X86773Y326032D01*
X86845Y326107D01*
X86853Y326125D01*
X86866Y326140D01*
X86905Y326236D01*
X86948Y326330D01*
X86950Y326350D01*
X86958Y326368D01*
X86976Y326535D01*
X86976Y349740D01*
X86973Y349760D01*
X86975Y349779D01*
X86953Y349881D01*
X86937Y349983D01*
X86927Y350000D01*
X86923Y350020D01*
X86870Y350109D01*
X86821Y350200D01*
X86807Y350214D01*
X86797Y350231D01*
X86718Y350298D01*
X86643Y350370D01*
X86625Y350378D01*
X86610Y350391D01*
X86514Y350430D01*
X86420Y350473D01*
X86400Y350475D01*
X86382Y350483D01*
X86215Y350501D01*
X61589Y350501D01*
X61474Y350482D01*
X61358Y350465D01*
X61352Y350463D01*
X61346Y350462D01*
X61243Y350407D01*
X61139Y350354D01*
X61134Y350349D01*
X61129Y350346D01*
X61048Y350261D01*
X60966Y350178D01*
X60963Y350172D01*
X60959Y350168D01*
X60951Y350151D01*
X60885Y350031D01*
X60506Y349115D01*
X57285Y345894D01*
X53077Y344151D01*
X48523Y344151D01*
X44315Y345894D01*
X41094Y349115D01*
X39351Y353323D01*
X39351Y357877D01*
X41094Y362085D01*
X44315Y365306D01*
X48523Y367049D01*
X53077Y367049D01*
X57285Y365306D01*
X60506Y362085D01*
X60885Y361169D01*
X60947Y361069D01*
X61007Y360969D01*
X61012Y360965D01*
X61015Y360960D01*
X61105Y360885D01*
X61194Y360809D01*
X61200Y360807D01*
X61204Y360803D01*
X61313Y360761D01*
X61422Y360717D01*
X61429Y360716D01*
X61434Y360715D01*
X61452Y360714D01*
X61589Y360699D01*
X86215Y360699D01*
X86235Y360702D01*
X86254Y360700D01*
X86356Y360722D01*
X86458Y360738D01*
X86475Y360748D01*
X86495Y360752D01*
X86584Y360805D01*
X86675Y360854D01*
X86689Y360868D01*
X86706Y360878D01*
X86773Y360957D01*
X86845Y361032D01*
X86853Y361050D01*
X86866Y361065D01*
X86905Y361161D01*
X86948Y361255D01*
X86950Y361275D01*
X86958Y361293D01*
X86976Y361460D01*
X86976Y459312D01*
X96313Y468649D01*
X243412Y468649D01*
X252749Y459312D01*
X252749Y454205D01*
X252763Y454115D01*
X252771Y454024D01*
X252783Y453994D01*
X252788Y453962D01*
X252831Y453882D01*
X252867Y453798D01*
X252893Y453765D01*
X252904Y453745D01*
X252927Y453723D01*
X252972Y453667D01*
X253458Y453181D01*
X254501Y450663D01*
X254501Y438337D01*
X253458Y435819D01*
X251531Y433892D01*
X249013Y432849D01*
X246287Y432849D01*
X243769Y433892D01*
X241842Y435819D01*
X240799Y438337D01*
X240799Y450663D01*
X241842Y453181D01*
X242328Y453667D01*
X242382Y453741D01*
X242441Y453810D01*
X242453Y453840D01*
X242472Y453866D01*
X242499Y453953D01*
X242533Y454038D01*
X242537Y454079D01*
X242544Y454102D01*
X242543Y454134D01*
X242551Y454205D01*
X242551Y454773D01*
X242550Y454781D01*
X242550Y454784D01*
X242547Y454801D01*
X242537Y454863D01*
X242529Y454954D01*
X242517Y454983D01*
X242512Y455015D01*
X242469Y455096D01*
X242433Y455180D01*
X242407Y455212D01*
X242396Y455233D01*
X242373Y455255D01*
X242328Y455311D01*
X239411Y458228D01*
X239337Y458281D01*
X239268Y458341D01*
X239237Y458353D01*
X239211Y458372D01*
X239124Y458399D01*
X239039Y458433D01*
X238998Y458437D01*
X238976Y458444D01*
X238944Y458443D01*
X238873Y458451D01*
X100852Y458451D01*
X100762Y458437D01*
X100671Y458429D01*
X100642Y458417D01*
X100610Y458412D01*
X100529Y458369D01*
X100445Y458333D01*
X100413Y458307D01*
X100392Y458296D01*
X100370Y458273D01*
X100314Y458228D01*
X97397Y455311D01*
X97344Y455237D01*
X97284Y455168D01*
X97272Y455137D01*
X97253Y455111D01*
X97226Y455024D01*
X97192Y454939D01*
X97188Y454898D01*
X97181Y454876D01*
X97182Y454844D01*
X97174Y454773D01*
X97174Y140763D01*
X94187Y137776D01*
X61589Y137776D01*
X61474Y137757D01*
X61358Y137740D01*
X61352Y137738D01*
X61346Y137737D01*
X61243Y137682D01*
X61139Y137629D01*
X61134Y137624D01*
X61129Y137621D01*
X61049Y137537D01*
X60966Y137453D01*
X60963Y137447D01*
X60959Y137443D01*
X60951Y137426D01*
X60885Y137306D01*
X60506Y136390D01*
X57285Y133169D01*
X53077Y131426D01*
X48523Y131426D01*
G37*
%LPD*%
%LPC*%
G36*
X119801Y115424D02*
X119801Y115424D01*
X118599Y116626D01*
X118599Y169124D01*
X119801Y170326D01*
X127490Y170326D01*
X127510Y170329D01*
X127529Y170327D01*
X127631Y170349D01*
X127733Y170365D01*
X127750Y170375D01*
X127770Y170379D01*
X127859Y170432D01*
X127950Y170481D01*
X127964Y170495D01*
X127981Y170505D01*
X128048Y170584D01*
X128120Y170659D01*
X128128Y170677D01*
X128141Y170692D01*
X128180Y170788D01*
X128223Y170882D01*
X128225Y170902D01*
X128233Y170920D01*
X128251Y171087D01*
X128251Y440262D01*
X137588Y449599D01*
X163838Y449599D01*
X163858Y449602D01*
X163877Y449600D01*
X163979Y449622D01*
X164081Y449638D01*
X164098Y449648D01*
X164118Y449652D01*
X164207Y449705D01*
X164298Y449754D01*
X164312Y449768D01*
X164329Y449778D01*
X164396Y449857D01*
X164468Y449932D01*
X164476Y449950D01*
X164489Y449965D01*
X164528Y450061D01*
X164571Y450155D01*
X164573Y450175D01*
X164581Y450193D01*
X164599Y450360D01*
X164599Y450663D01*
X165642Y453181D01*
X167569Y455108D01*
X170087Y456151D01*
X172813Y456151D01*
X175331Y455108D01*
X177258Y453181D01*
X178301Y450663D01*
X178301Y438337D01*
X177258Y435819D01*
X175331Y433892D01*
X172813Y432849D01*
X170087Y432849D01*
X167569Y433892D01*
X165642Y435819D01*
X164599Y438337D01*
X164599Y438640D01*
X164596Y438660D01*
X164598Y438679D01*
X164576Y438781D01*
X164560Y438883D01*
X164550Y438900D01*
X164546Y438920D01*
X164493Y439009D01*
X164444Y439100D01*
X164430Y439114D01*
X164420Y439131D01*
X164341Y439198D01*
X164266Y439270D01*
X164248Y439278D01*
X164233Y439291D01*
X164137Y439330D01*
X164043Y439373D01*
X164023Y439375D01*
X164005Y439383D01*
X163838Y439401D01*
X142127Y439401D01*
X142037Y439387D01*
X141946Y439379D01*
X141917Y439367D01*
X141885Y439362D01*
X141804Y439319D01*
X141720Y439283D01*
X141688Y439257D01*
X141667Y439246D01*
X141645Y439223D01*
X141589Y439178D01*
X138672Y436261D01*
X138619Y436187D01*
X138559Y436118D01*
X138547Y436087D01*
X138528Y436061D01*
X138501Y435974D01*
X138493Y435954D01*
X138477Y435919D01*
X138476Y435911D01*
X138467Y435889D01*
X138463Y435848D01*
X138456Y435826D01*
X138457Y435794D01*
X138449Y435723D01*
X138449Y171087D01*
X138452Y171067D01*
X138450Y171048D01*
X138472Y170946D01*
X138488Y170844D01*
X138498Y170827D01*
X138502Y170807D01*
X138555Y170718D01*
X138604Y170627D01*
X138618Y170613D01*
X138628Y170596D01*
X138707Y170529D01*
X138782Y170457D01*
X138800Y170449D01*
X138815Y170436D01*
X138911Y170397D01*
X139005Y170354D01*
X139025Y170352D01*
X139043Y170344D01*
X139210Y170326D01*
X146899Y170326D01*
X148101Y169124D01*
X148101Y116626D01*
X146899Y115424D01*
X119801Y115424D01*
G37*
%LPD*%
%LPC*%
G36*
X267598Y106026D02*
X267598Y106026D01*
X263390Y107769D01*
X260169Y110990D01*
X258426Y115198D01*
X258426Y119752D01*
X260169Y123960D01*
X263390Y127181D01*
X267598Y128924D01*
X272152Y128924D01*
X275355Y127597D01*
X275468Y127571D01*
X275582Y127542D01*
X275588Y127542D01*
X275594Y127541D01*
X275711Y127552D01*
X275827Y127561D01*
X275833Y127564D01*
X275839Y127564D01*
X275947Y127612D01*
X276053Y127657D01*
X276059Y127662D01*
X276064Y127664D01*
X276078Y127677D01*
X276184Y127762D01*
X309985Y161563D01*
X333190Y161563D01*
X333280Y161577D01*
X333371Y161585D01*
X333401Y161597D01*
X333433Y161602D01*
X333514Y161645D01*
X333597Y161681D01*
X333630Y161707D01*
X333650Y161718D01*
X333672Y161741D01*
X333728Y161786D01*
X343030Y171088D01*
X452466Y171088D01*
X452581Y171107D01*
X452697Y171124D01*
X452703Y171126D01*
X452709Y171127D01*
X452811Y171182D01*
X452916Y171235D01*
X452921Y171240D01*
X452926Y171243D01*
X453007Y171327D01*
X453088Y171411D01*
X453092Y171417D01*
X453096Y171421D01*
X453103Y171438D01*
X453169Y171558D01*
X453364Y172027D01*
X455226Y173889D01*
X457661Y174898D01*
X469439Y174898D01*
X471874Y173889D01*
X473736Y172027D01*
X474745Y169592D01*
X474745Y166958D01*
X473736Y164523D01*
X471874Y162661D01*
X471796Y162628D01*
X471735Y162590D01*
X471669Y162561D01*
X471631Y162526D01*
X471587Y162499D01*
X471541Y162443D01*
X471488Y162395D01*
X471463Y162349D01*
X471430Y162309D01*
X471404Y162242D01*
X471369Y162179D01*
X471360Y162128D01*
X471342Y162080D01*
X471339Y162008D01*
X471326Y161937D01*
X471333Y161886D01*
X471331Y161834D01*
X471351Y161765D01*
X471362Y161694D01*
X471385Y161648D01*
X471400Y161598D01*
X471441Y161539D01*
X471473Y161475D01*
X471510Y161438D01*
X471540Y161396D01*
X471597Y161353D01*
X471649Y161303D01*
X471712Y161268D01*
X471737Y161249D01*
X471760Y161242D01*
X471796Y161222D01*
X471874Y161189D01*
X473736Y159327D01*
X474745Y156892D01*
X474745Y154258D01*
X473736Y151823D01*
X471907Y149994D01*
X471861Y149930D01*
X471844Y149912D01*
X471839Y149903D01*
X471792Y149846D01*
X471781Y149818D01*
X471764Y149795D01*
X471736Y149704D01*
X471701Y149617D01*
X471700Y149588D01*
X471691Y149560D01*
X471694Y149465D01*
X471689Y149371D01*
X471697Y149343D01*
X471698Y149314D01*
X471730Y149225D01*
X471756Y149134D01*
X471772Y149110D01*
X471782Y149083D01*
X471841Y149009D01*
X471894Y148931D01*
X471922Y148907D01*
X471936Y148891D01*
X471963Y148873D01*
X472023Y148823D01*
X472656Y148400D01*
X473647Y147409D01*
X474425Y146244D01*
X474961Y144950D01*
X475071Y144398D01*
X464312Y144398D01*
X464292Y144395D01*
X464273Y144397D01*
X464171Y144375D01*
X464069Y144358D01*
X464052Y144349D01*
X464032Y144345D01*
X463943Y144292D01*
X463852Y144243D01*
X463838Y144229D01*
X463821Y144219D01*
X463754Y144140D01*
X463683Y144065D01*
X463674Y144047D01*
X463661Y144032D01*
X463623Y143936D01*
X463579Y143842D01*
X463577Y143822D01*
X463569Y143804D01*
X463551Y143637D01*
X463551Y142113D01*
X463554Y142093D01*
X463552Y142074D01*
X463574Y141972D01*
X463591Y141870D01*
X463600Y141853D01*
X463604Y141833D01*
X463657Y141744D01*
X463706Y141653D01*
X463720Y141639D01*
X463730Y141622D01*
X463809Y141555D01*
X463884Y141484D01*
X463902Y141475D01*
X463917Y141462D01*
X464013Y141423D01*
X464107Y141380D01*
X464127Y141378D01*
X464145Y141370D01*
X464312Y141352D01*
X475071Y141352D01*
X474961Y140800D01*
X474425Y139506D01*
X473647Y138341D01*
X472656Y137350D01*
X472023Y136927D01*
X471954Y136863D01*
X471880Y136804D01*
X471864Y136779D01*
X471843Y136759D01*
X471798Y136676D01*
X471747Y136597D01*
X471740Y136568D01*
X471726Y136543D01*
X471710Y136450D01*
X471687Y136358D01*
X471689Y136329D01*
X471684Y136300D01*
X471699Y136207D01*
X471706Y136113D01*
X471718Y136086D01*
X471722Y136057D01*
X471766Y135973D01*
X471802Y135887D01*
X471825Y135858D01*
X471835Y135839D01*
X471859Y135816D01*
X471907Y135756D01*
X473736Y133927D01*
X474745Y131492D01*
X474745Y128858D01*
X473736Y126423D01*
X471874Y124561D01*
X469439Y123552D01*
X457661Y123552D01*
X455226Y124561D01*
X453364Y126423D01*
X453169Y126892D01*
X453108Y126992D01*
X453048Y127092D01*
X453043Y127096D01*
X453040Y127101D01*
X452950Y127176D01*
X452861Y127252D01*
X452855Y127254D01*
X452850Y127258D01*
X452742Y127300D01*
X452633Y127344D01*
X452625Y127345D01*
X452621Y127346D01*
X452602Y127347D01*
X452466Y127362D01*
X360255Y127362D01*
X360165Y127348D01*
X360074Y127340D01*
X360045Y127328D01*
X360013Y127323D01*
X359932Y127280D01*
X359848Y127244D01*
X359816Y127218D01*
X359795Y127207D01*
X359773Y127184D01*
X359717Y127139D01*
X356362Y123784D01*
X356295Y123690D01*
X356224Y123596D01*
X356222Y123590D01*
X356219Y123585D01*
X356185Y123474D01*
X356148Y123362D01*
X356148Y123356D01*
X356146Y123350D01*
X356149Y123233D01*
X356150Y123116D01*
X356153Y123109D01*
X356153Y123104D01*
X356159Y123086D01*
X356197Y122955D01*
X357524Y119752D01*
X357524Y115198D01*
X355781Y110990D01*
X352560Y107769D01*
X348352Y106026D01*
X343798Y106026D01*
X339590Y107769D01*
X336369Y110990D01*
X334626Y115198D01*
X334626Y119752D01*
X336369Y123960D01*
X339590Y127181D01*
X343798Y128924D01*
X348352Y128924D01*
X351555Y127597D01*
X351668Y127571D01*
X351782Y127542D01*
X351788Y127542D01*
X351794Y127541D01*
X351911Y127552D01*
X352027Y127561D01*
X352033Y127564D01*
X352039Y127564D01*
X352147Y127612D01*
X352253Y127657D01*
X352259Y127662D01*
X352264Y127664D01*
X352278Y127677D01*
X352384Y127762D01*
X357610Y132988D01*
X452466Y132988D01*
X452581Y133007D01*
X452697Y133024D01*
X452703Y133026D01*
X452709Y133027D01*
X452811Y133082D01*
X452916Y133135D01*
X452921Y133140D01*
X452926Y133143D01*
X453007Y133227D01*
X453088Y133311D01*
X453092Y133317D01*
X453096Y133321D01*
X453103Y133338D01*
X453169Y133458D01*
X453364Y133927D01*
X455193Y135756D01*
X455248Y135832D01*
X455308Y135904D01*
X455319Y135932D01*
X455336Y135955D01*
X455364Y136046D01*
X455399Y136133D01*
X455400Y136162D01*
X455409Y136190D01*
X455406Y136285D01*
X455411Y136379D01*
X455403Y136407D01*
X455402Y136436D01*
X455370Y136525D01*
X455344Y136616D01*
X455328Y136640D01*
X455318Y136667D01*
X455259Y136741D01*
X455206Y136819D01*
X455178Y136843D01*
X455164Y136859D01*
X455137Y136877D01*
X455077Y136927D01*
X454444Y137350D01*
X453453Y138341D01*
X452675Y139506D01*
X452139Y140800D01*
X452029Y141352D01*
X462788Y141352D01*
X462808Y141355D01*
X462827Y141353D01*
X462929Y141375D01*
X463031Y141392D01*
X463048Y141401D01*
X463068Y141405D01*
X463157Y141458D01*
X463248Y141507D01*
X463262Y141521D01*
X463279Y141531D01*
X463346Y141610D01*
X463417Y141685D01*
X463426Y141703D01*
X463439Y141718D01*
X463477Y141814D01*
X463521Y141908D01*
X463523Y141928D01*
X463531Y141946D01*
X463549Y142113D01*
X463549Y143637D01*
X463546Y143657D01*
X463548Y143676D01*
X463526Y143778D01*
X463509Y143880D01*
X463500Y143897D01*
X463496Y143917D01*
X463443Y144006D01*
X463394Y144097D01*
X463380Y144111D01*
X463370Y144128D01*
X463291Y144195D01*
X463216Y144266D01*
X463198Y144275D01*
X463183Y144288D01*
X463087Y144327D01*
X462993Y144370D01*
X462973Y144372D01*
X462955Y144380D01*
X462788Y144398D01*
X452029Y144398D01*
X452139Y144950D01*
X452675Y146244D01*
X453453Y147409D01*
X454444Y148400D01*
X455077Y148823D01*
X455146Y148887D01*
X455220Y148946D01*
X455236Y148971D01*
X455257Y148991D01*
X455302Y149074D01*
X455353Y149153D01*
X455360Y149182D01*
X455374Y149207D01*
X455390Y149300D01*
X455413Y149392D01*
X455411Y149421D01*
X455416Y149450D01*
X455401Y149543D01*
X455394Y149637D01*
X455382Y149664D01*
X455378Y149693D01*
X455334Y149777D01*
X455298Y149863D01*
X455275Y149892D01*
X455265Y149911D01*
X455241Y149934D01*
X455209Y149975D01*
X455208Y149975D01*
X455193Y149994D01*
X453364Y151823D01*
X453169Y152292D01*
X453108Y152392D01*
X453048Y152492D01*
X453043Y152496D01*
X453040Y152501D01*
X452950Y152576D01*
X452861Y152652D01*
X452855Y152654D01*
X452850Y152658D01*
X452742Y152700D01*
X452633Y152744D01*
X452625Y152745D01*
X452621Y152746D01*
X452602Y152747D01*
X452466Y152762D01*
X357080Y152762D01*
X356990Y152748D01*
X356899Y152740D01*
X356870Y152728D01*
X356838Y152723D01*
X356757Y152680D01*
X356673Y152644D01*
X356641Y152618D01*
X356620Y152607D01*
X356598Y152584D01*
X356542Y152539D01*
X340890Y136887D01*
X322155Y136887D01*
X322065Y136873D01*
X321974Y136865D01*
X321945Y136853D01*
X321913Y136848D01*
X321832Y136805D01*
X321748Y136769D01*
X321716Y136743D01*
X321695Y136732D01*
X321673Y136709D01*
X321617Y136664D01*
X313621Y128668D01*
X313594Y128631D01*
X313560Y128599D01*
X313522Y128531D01*
X313477Y128468D01*
X313464Y128424D01*
X313441Y128384D01*
X313428Y128307D01*
X313405Y128233D01*
X313406Y128187D01*
X313398Y128142D01*
X313409Y128065D01*
X313411Y127987D01*
X313427Y127944D01*
X313434Y127899D01*
X313469Y127829D01*
X313496Y127756D01*
X313524Y127720D01*
X313545Y127679D01*
X313601Y127625D01*
X313649Y127564D01*
X313688Y127539D01*
X313721Y127507D01*
X313840Y127441D01*
X313856Y127431D01*
X313861Y127430D01*
X313868Y127426D01*
X314460Y127181D01*
X317681Y123960D01*
X319424Y119752D01*
X319424Y115198D01*
X317681Y110990D01*
X314460Y107769D01*
X310252Y106026D01*
X305698Y106026D01*
X301490Y107769D01*
X298269Y110990D01*
X296526Y115198D01*
X296526Y119752D01*
X298269Y123960D01*
X301490Y127181D01*
X305742Y128942D01*
X305787Y128946D01*
X305816Y128958D01*
X305848Y128963D01*
X305929Y129006D01*
X306013Y129042D01*
X306045Y129068D01*
X306066Y129079D01*
X306071Y129084D01*
X306072Y129085D01*
X306089Y129103D01*
X306144Y129147D01*
X319510Y142513D01*
X338245Y142513D01*
X338335Y142527D01*
X338426Y142535D01*
X338455Y142547D01*
X338487Y142552D01*
X338568Y142595D01*
X338652Y142631D01*
X338684Y142657D01*
X338705Y142668D01*
X338727Y142691D01*
X338783Y142736D01*
X354435Y158388D01*
X452466Y158388D01*
X452581Y158407D01*
X452697Y158424D01*
X452703Y158426D01*
X452709Y158427D01*
X452811Y158482D01*
X452916Y158535D01*
X452921Y158540D01*
X452926Y158543D01*
X453007Y158627D01*
X453088Y158711D01*
X453092Y158717D01*
X453096Y158721D01*
X453103Y158738D01*
X453169Y158858D01*
X453364Y159327D01*
X455226Y161189D01*
X455304Y161222D01*
X455365Y161259D01*
X455431Y161289D01*
X455469Y161324D01*
X455513Y161351D01*
X455559Y161407D01*
X455612Y161455D01*
X455637Y161501D01*
X455670Y161541D01*
X455696Y161608D01*
X455730Y161671D01*
X455740Y161722D01*
X455758Y161770D01*
X455761Y161842D01*
X455774Y161913D01*
X455767Y161964D01*
X455769Y162016D01*
X455749Y162085D01*
X455738Y162156D01*
X455715Y162202D01*
X455700Y162252D01*
X455659Y162311D01*
X455627Y162375D01*
X455590Y162412D01*
X455560Y162454D01*
X455502Y162497D01*
X455451Y162547D01*
X455389Y162582D01*
X455363Y162601D01*
X455340Y162608D01*
X455304Y162628D01*
X455226Y162661D01*
X453364Y164523D01*
X453169Y164992D01*
X453108Y165092D01*
X453048Y165192D01*
X453043Y165196D01*
X453040Y165201D01*
X452950Y165276D01*
X452861Y165352D01*
X452855Y165354D01*
X452850Y165358D01*
X452742Y165400D01*
X452633Y165444D01*
X452625Y165445D01*
X452621Y165446D01*
X452602Y165447D01*
X452466Y165462D01*
X345676Y165462D01*
X345586Y165448D01*
X345495Y165440D01*
X345465Y165428D01*
X345433Y165423D01*
X345353Y165380D01*
X345269Y165344D01*
X345237Y165318D01*
X345216Y165307D01*
X345194Y165284D01*
X345138Y165239D01*
X335836Y155937D01*
X312630Y155937D01*
X312540Y155923D01*
X312449Y155915D01*
X312420Y155903D01*
X312388Y155898D01*
X312307Y155855D01*
X312223Y155819D01*
X312191Y155793D01*
X312170Y155782D01*
X312148Y155759D01*
X312092Y155714D01*
X280162Y123784D01*
X280095Y123690D01*
X280024Y123596D01*
X280022Y123590D01*
X280019Y123585D01*
X279985Y123474D01*
X279948Y123362D01*
X279948Y123356D01*
X279946Y123350D01*
X279949Y123233D01*
X279950Y123116D01*
X279953Y123109D01*
X279953Y123104D01*
X279959Y123086D01*
X279997Y122955D01*
X281324Y119752D01*
X281324Y115198D01*
X279581Y110990D01*
X276360Y107769D01*
X272152Y106026D01*
X267598Y106026D01*
G37*
%LPD*%
%LPC*%
G36*
X267598Y182226D02*
X267598Y182226D01*
X263390Y183969D01*
X260169Y187190D01*
X258426Y191398D01*
X258426Y195952D01*
X260169Y200160D01*
X263390Y203381D01*
X266592Y204707D01*
X266692Y204769D01*
X266792Y204829D01*
X266796Y204834D01*
X266801Y204837D01*
X266876Y204927D01*
X266952Y205016D01*
X266954Y205022D01*
X266958Y205026D01*
X267000Y205135D01*
X267044Y205244D01*
X267045Y205251D01*
X267046Y205256D01*
X267047Y205274D01*
X267062Y205411D01*
X267062Y207540D01*
X284585Y225063D01*
X439845Y225063D01*
X439935Y225077D01*
X440026Y225085D01*
X440055Y225097D01*
X440087Y225102D01*
X440168Y225145D01*
X440252Y225181D01*
X440284Y225207D01*
X440305Y225218D01*
X440327Y225241D01*
X440383Y225286D01*
X447814Y232717D01*
X447861Y232783D01*
X447871Y232793D01*
X447874Y232799D01*
X447927Y232861D01*
X447939Y232891D01*
X447958Y232917D01*
X447985Y233004D01*
X448019Y233089D01*
X448023Y233130D01*
X448030Y233152D01*
X448029Y233184D01*
X448037Y233255D01*
X448037Y280541D01*
X448018Y280656D01*
X448001Y280772D01*
X447999Y280778D01*
X447998Y280784D01*
X447943Y280886D01*
X447890Y280991D01*
X447885Y280996D01*
X447882Y281001D01*
X447798Y281081D01*
X447714Y281164D01*
X447708Y281167D01*
X447704Y281171D01*
X447687Y281179D01*
X447567Y281245D01*
X446969Y281492D01*
X445042Y283419D01*
X443999Y285937D01*
X443999Y298263D01*
X445042Y300781D01*
X446969Y302708D01*
X449487Y303751D01*
X452213Y303751D01*
X454731Y302708D01*
X456658Y300781D01*
X457701Y298263D01*
X457701Y285937D01*
X456658Y283419D01*
X454731Y281492D01*
X454133Y281245D01*
X454033Y281183D01*
X453933Y281123D01*
X453929Y281118D01*
X453924Y281115D01*
X453849Y281024D01*
X453773Y280936D01*
X453771Y280930D01*
X453767Y280925D01*
X453725Y280817D01*
X453681Y280708D01*
X453680Y280700D01*
X453679Y280696D01*
X453678Y280678D01*
X453663Y280541D01*
X453663Y230610D01*
X442490Y219437D01*
X287230Y219437D01*
X287140Y219423D01*
X287049Y219415D01*
X287020Y219403D01*
X286988Y219398D01*
X286907Y219355D01*
X286823Y219319D01*
X286791Y219293D01*
X286770Y219282D01*
X286748Y219259D01*
X286692Y219214D01*
X273276Y205798D01*
X273249Y205760D01*
X273215Y205729D01*
X273177Y205661D01*
X273132Y205598D01*
X273119Y205554D01*
X273096Y205514D01*
X273083Y205437D01*
X273060Y205363D01*
X273061Y205317D01*
X273053Y205272D01*
X273064Y205195D01*
X273066Y205117D01*
X273082Y205074D01*
X273088Y205029D01*
X273124Y204959D01*
X273150Y204886D01*
X273179Y204850D01*
X273200Y204809D01*
X273256Y204755D01*
X273304Y204694D01*
X273343Y204669D01*
X273376Y204637D01*
X273495Y204571D01*
X273511Y204561D01*
X273516Y204560D01*
X273523Y204556D01*
X276360Y203381D01*
X279581Y200160D01*
X281324Y195952D01*
X281324Y191398D01*
X279581Y187190D01*
X276360Y183969D01*
X272152Y182226D01*
X267598Y182226D01*
G37*
%LPD*%
%LPC*%
G36*
X305698Y182226D02*
X305698Y182226D01*
X301490Y183969D01*
X298269Y187190D01*
X296526Y191398D01*
X296526Y195952D01*
X298269Y200160D01*
X301490Y203381D01*
X305698Y205124D01*
X308781Y205124D01*
X308871Y205138D01*
X308962Y205146D01*
X308991Y205158D01*
X309023Y205163D01*
X309104Y205206D01*
X309188Y205242D01*
X309220Y205268D01*
X309241Y205279D01*
X309263Y205302D01*
X309319Y205347D01*
X316335Y212363D01*
X462070Y212363D01*
X462160Y212377D01*
X462251Y212385D01*
X462280Y212397D01*
X462312Y212402D01*
X462393Y212445D01*
X462477Y212481D01*
X462509Y212507D01*
X462530Y212518D01*
X462552Y212541D01*
X462608Y212586D01*
X473214Y223192D01*
X473267Y223266D01*
X473327Y223336D01*
X473339Y223366D01*
X473358Y223392D01*
X473385Y223479D01*
X473419Y223564D01*
X473423Y223605D01*
X473430Y223627D01*
X473429Y223659D01*
X473437Y223730D01*
X473437Y280541D01*
X473418Y280656D01*
X473401Y280772D01*
X473399Y280778D01*
X473398Y280784D01*
X473343Y280886D01*
X473290Y280991D01*
X473285Y280996D01*
X473282Y281001D01*
X473198Y281081D01*
X473114Y281164D01*
X473108Y281167D01*
X473104Y281171D01*
X473087Y281179D01*
X472967Y281245D01*
X472369Y281492D01*
X470442Y283419D01*
X469399Y285937D01*
X469399Y298263D01*
X470442Y300781D01*
X472369Y302708D01*
X474887Y303751D01*
X477613Y303751D01*
X480131Y302708D01*
X482058Y300781D01*
X483101Y298263D01*
X483101Y285937D01*
X482058Y283419D01*
X480131Y281492D01*
X479533Y281245D01*
X479433Y281183D01*
X479333Y281123D01*
X479329Y281118D01*
X479324Y281115D01*
X479249Y281024D01*
X479173Y280936D01*
X479171Y280930D01*
X479167Y280925D01*
X479125Y280817D01*
X479081Y280708D01*
X479080Y280700D01*
X479079Y280696D01*
X479078Y280678D01*
X479063Y280541D01*
X479063Y221085D01*
X464715Y206737D01*
X318980Y206737D01*
X318890Y206723D01*
X318799Y206715D01*
X318770Y206703D01*
X318738Y206698D01*
X318657Y206655D01*
X318573Y206619D01*
X318541Y206593D01*
X318520Y206582D01*
X318498Y206559D01*
X318442Y206514D01*
X315423Y203495D01*
X315411Y203479D01*
X315395Y203466D01*
X315339Y203379D01*
X315279Y203295D01*
X315273Y203276D01*
X315262Y203259D01*
X315237Y203159D01*
X315207Y203060D01*
X315207Y203040D01*
X315202Y203021D01*
X315210Y202918D01*
X315213Y202814D01*
X315220Y202795D01*
X315222Y202776D01*
X315262Y202681D01*
X315298Y202583D01*
X315310Y202568D01*
X315318Y202549D01*
X315423Y202418D01*
X317681Y200160D01*
X319424Y195952D01*
X319424Y191398D01*
X317681Y187190D01*
X314460Y183969D01*
X310252Y182226D01*
X305698Y182226D01*
G37*
%LPD*%
%LPC*%
G36*
X343798Y182226D02*
X343798Y182226D01*
X339590Y183969D01*
X336369Y187190D01*
X334626Y191398D01*
X334626Y195952D01*
X336369Y200160D01*
X339590Y203381D01*
X343798Y205124D01*
X348352Y205124D01*
X352560Y203381D01*
X355781Y200160D01*
X357107Y196958D01*
X357169Y196858D01*
X357229Y196758D01*
X357234Y196754D01*
X357237Y196749D01*
X357327Y196674D01*
X357416Y196598D01*
X357422Y196596D01*
X357426Y196592D01*
X357535Y196550D01*
X357644Y196506D01*
X357651Y196505D01*
X357656Y196504D01*
X357674Y196503D01*
X357811Y196488D01*
X490645Y196488D01*
X490735Y196502D01*
X490826Y196510D01*
X490855Y196522D01*
X490887Y196527D01*
X490968Y196570D01*
X491052Y196606D01*
X491084Y196632D01*
X491105Y196643D01*
X491127Y196666D01*
X491183Y196711D01*
X498614Y204142D01*
X498667Y204216D01*
X498727Y204286D01*
X498739Y204316D01*
X498758Y204342D01*
X498785Y204429D01*
X498819Y204514D01*
X498823Y204555D01*
X498830Y204577D01*
X498829Y204609D01*
X498837Y204680D01*
X498837Y280541D01*
X498818Y280656D01*
X498801Y280772D01*
X498799Y280778D01*
X498798Y280784D01*
X498743Y280886D01*
X498690Y280991D01*
X498685Y280996D01*
X498682Y281001D01*
X498598Y281081D01*
X498514Y281164D01*
X498508Y281167D01*
X498504Y281171D01*
X498487Y281179D01*
X498367Y281245D01*
X497769Y281492D01*
X495842Y283419D01*
X494799Y285937D01*
X494799Y298263D01*
X495842Y300781D01*
X497769Y302708D01*
X500287Y303751D01*
X503013Y303751D01*
X505531Y302708D01*
X507458Y300781D01*
X508501Y298263D01*
X508501Y285937D01*
X507458Y283419D01*
X505531Y281492D01*
X504933Y281245D01*
X504833Y281183D01*
X504733Y281123D01*
X504729Y281118D01*
X504724Y281115D01*
X504649Y281024D01*
X504573Y280936D01*
X504571Y280930D01*
X504567Y280925D01*
X504525Y280817D01*
X504481Y280708D01*
X504480Y280700D01*
X504479Y280696D01*
X504478Y280678D01*
X504463Y280541D01*
X504463Y202035D01*
X495161Y192733D01*
X493290Y190862D01*
X357811Y190862D01*
X357696Y190843D01*
X357580Y190826D01*
X357574Y190824D01*
X357568Y190823D01*
X357465Y190768D01*
X357360Y190715D01*
X357356Y190710D01*
X357350Y190707D01*
X357271Y190623D01*
X357188Y190539D01*
X357185Y190533D01*
X357181Y190529D01*
X357173Y190512D01*
X357107Y190392D01*
X355781Y187190D01*
X352560Y183969D01*
X348352Y182226D01*
X343798Y182226D01*
G37*
%LPD*%
%LPC*%
G36*
X48523Y55226D02*
X48523Y55226D01*
X44315Y56969D01*
X41094Y60190D01*
X39351Y64398D01*
X39351Y68952D01*
X41094Y73160D01*
X44315Y76381D01*
X48523Y78124D01*
X53077Y78124D01*
X57285Y76381D01*
X60506Y73160D01*
X62249Y68952D01*
X62249Y64398D01*
X60506Y60190D01*
X57285Y56969D01*
X53077Y55226D01*
X48523Y55226D01*
G37*
%LPD*%
%LPC*%
G36*
X48523Y80626D02*
X48523Y80626D01*
X44315Y82369D01*
X41094Y85590D01*
X39351Y89798D01*
X39351Y94352D01*
X41094Y98560D01*
X44315Y101781D01*
X48523Y103524D01*
X53077Y103524D01*
X57285Y101781D01*
X60506Y98560D01*
X62249Y94352D01*
X62249Y89798D01*
X60506Y85590D01*
X57285Y82369D01*
X53077Y80626D01*
X48523Y80626D01*
G37*
%LPD*%
%LPC*%
G36*
X48523Y369551D02*
X48523Y369551D01*
X44315Y371294D01*
X41094Y374515D01*
X39351Y378723D01*
X39351Y383277D01*
X41094Y387485D01*
X44315Y390706D01*
X48523Y392449D01*
X53077Y392449D01*
X57285Y390706D01*
X60506Y387485D01*
X62249Y383277D01*
X62249Y378723D01*
X60506Y374515D01*
X57285Y371294D01*
X53077Y369551D01*
X48523Y369551D01*
G37*
%LPD*%
%LPC*%
G36*
X48523Y258426D02*
X48523Y258426D01*
X44315Y260169D01*
X41094Y263390D01*
X39351Y267598D01*
X39351Y272152D01*
X41094Y276360D01*
X44315Y279581D01*
X48523Y281324D01*
X53077Y281324D01*
X57285Y279581D01*
X60506Y276360D01*
X62249Y272152D01*
X62249Y267598D01*
X60506Y263390D01*
X57285Y260169D01*
X53077Y258426D01*
X48523Y258426D01*
G37*
%LPD*%
%LPC*%
G36*
X48523Y217151D02*
X48523Y217151D01*
X44315Y218894D01*
X41094Y222115D01*
X39351Y226323D01*
X39351Y230877D01*
X41094Y235085D01*
X44315Y238306D01*
X48523Y240049D01*
X53077Y240049D01*
X57285Y238306D01*
X60506Y235085D01*
X62249Y230877D01*
X62249Y226323D01*
X60506Y222115D01*
X57285Y218894D01*
X53077Y217151D01*
X48523Y217151D01*
G37*
%LPD*%
%LPC*%
G36*
X48523Y394951D02*
X48523Y394951D01*
X44315Y396694D01*
X41094Y399915D01*
X39351Y404123D01*
X39351Y408677D01*
X41094Y412885D01*
X44315Y416106D01*
X48523Y417849D01*
X53077Y417849D01*
X57285Y416106D01*
X60506Y412885D01*
X62249Y408677D01*
X62249Y404123D01*
X60506Y399915D01*
X57285Y396694D01*
X53077Y394951D01*
X48523Y394951D01*
G37*
%LPD*%
%LPC*%
G36*
X188848Y144398D02*
X188848Y144398D01*
X188848Y170816D01*
X200359Y170816D01*
X201006Y170643D01*
X201585Y170308D01*
X202058Y169835D01*
X202393Y169256D01*
X202566Y168609D01*
X202566Y144398D01*
X188848Y144398D01*
G37*
%LPD*%
%LPC*%
G36*
X188848Y114934D02*
X188848Y114934D01*
X188848Y141352D01*
X202566Y141352D01*
X202566Y117141D01*
X202393Y116494D01*
X202058Y115915D01*
X201585Y115442D01*
X201006Y115107D01*
X200359Y114934D01*
X188848Y114934D01*
G37*
%LPD*%
%LPC*%
G36*
X172084Y144398D02*
X172084Y144398D01*
X172084Y168609D01*
X172257Y169256D01*
X172592Y169835D01*
X173065Y170308D01*
X173644Y170643D01*
X174291Y170816D01*
X185802Y170816D01*
X185802Y144398D01*
X172084Y144398D01*
G37*
%LPD*%
%LPC*%
G36*
X174291Y114934D02*
X174291Y114934D01*
X173644Y115107D01*
X173065Y115442D01*
X172592Y115915D01*
X172257Y116494D01*
X172084Y117141D01*
X172084Y141352D01*
X185802Y141352D01*
X185802Y114934D01*
X174291Y114934D01*
G37*
%LPD*%
%LPC*%
G36*
X525687Y280449D02*
X525687Y280449D01*
X523169Y281492D01*
X521242Y283419D01*
X520199Y285937D01*
X520199Y298263D01*
X521242Y300781D01*
X523169Y302708D01*
X525687Y303751D01*
X528413Y303751D01*
X530931Y302708D01*
X532858Y300781D01*
X533901Y298263D01*
X533901Y285937D01*
X532858Y283419D01*
X530931Y281492D01*
X528413Y280449D01*
X525687Y280449D01*
G37*
%LPD*%
%LPC*%
G36*
X220887Y280449D02*
X220887Y280449D01*
X218369Y281492D01*
X216442Y283419D01*
X215399Y285937D01*
X215399Y298263D01*
X216442Y300781D01*
X218369Y302708D01*
X220887Y303751D01*
X223613Y303751D01*
X226131Y302708D01*
X228058Y300781D01*
X229101Y298263D01*
X229101Y285937D01*
X228058Y283419D01*
X226131Y281492D01*
X223613Y280449D01*
X220887Y280449D01*
G37*
%LPD*%
%LPC*%
G36*
X297087Y432849D02*
X297087Y432849D01*
X294569Y433892D01*
X292642Y435819D01*
X291599Y438337D01*
X291599Y450663D01*
X292642Y453181D01*
X294569Y455108D01*
X297087Y456151D01*
X299813Y456151D01*
X302331Y455108D01*
X304258Y453181D01*
X305301Y450663D01*
X305301Y438337D01*
X304258Y435819D01*
X302331Y433892D01*
X299813Y432849D01*
X297087Y432849D01*
G37*
%LPD*%
%LPC*%
G36*
X322487Y432849D02*
X322487Y432849D01*
X319969Y433892D01*
X318042Y435819D01*
X316999Y438337D01*
X316999Y450663D01*
X318042Y453181D01*
X319969Y455108D01*
X322487Y456151D01*
X325213Y456151D01*
X327731Y455108D01*
X329658Y453181D01*
X330701Y450663D01*
X330701Y438337D01*
X329658Y435819D01*
X327731Y433892D01*
X325213Y432849D01*
X322487Y432849D01*
G37*
%LPD*%
%LPC*%
G36*
X347887Y432849D02*
X347887Y432849D01*
X345369Y433892D01*
X343442Y435819D01*
X342399Y438337D01*
X342399Y450663D01*
X343442Y453181D01*
X345369Y455108D01*
X347887Y456151D01*
X350613Y456151D01*
X353131Y455108D01*
X355058Y453181D01*
X356101Y450663D01*
X356101Y438337D01*
X355058Y435819D01*
X353131Y433892D01*
X350613Y432849D01*
X347887Y432849D01*
G37*
%LPD*%
%LPC*%
G36*
X373287Y432849D02*
X373287Y432849D01*
X370769Y433892D01*
X368842Y435819D01*
X367799Y438337D01*
X367799Y450663D01*
X368842Y453181D01*
X370769Y455108D01*
X373287Y456151D01*
X376013Y456151D01*
X378531Y455108D01*
X380458Y453181D01*
X381501Y450663D01*
X381501Y438337D01*
X380458Y435819D01*
X378531Y433892D01*
X376013Y432849D01*
X373287Y432849D01*
G37*
%LPD*%
%LPC*%
G36*
X398687Y432849D02*
X398687Y432849D01*
X396169Y433892D01*
X394242Y435819D01*
X393199Y438337D01*
X393199Y450663D01*
X394242Y453181D01*
X396169Y455108D01*
X398687Y456151D01*
X401413Y456151D01*
X403931Y455108D01*
X405858Y453181D01*
X406901Y450663D01*
X406901Y438337D01*
X405858Y435819D01*
X403931Y433892D01*
X401413Y432849D01*
X398687Y432849D01*
G37*
%LPD*%
%LPC*%
G36*
X424087Y432849D02*
X424087Y432849D01*
X421569Y433892D01*
X419642Y435819D01*
X418599Y438337D01*
X418599Y450663D01*
X419642Y453181D01*
X421569Y455108D01*
X424087Y456151D01*
X426813Y456151D01*
X429331Y455108D01*
X431258Y453181D01*
X432301Y450663D01*
X432301Y438337D01*
X431258Y435819D01*
X429331Y433892D01*
X426813Y432849D01*
X424087Y432849D01*
G37*
%LPD*%
%LPC*%
G36*
X500287Y432849D02*
X500287Y432849D01*
X497769Y433892D01*
X495842Y435819D01*
X494799Y438337D01*
X494799Y450663D01*
X495842Y453181D01*
X497769Y455108D01*
X500287Y456151D01*
X503013Y456151D01*
X505531Y455108D01*
X507458Y453181D01*
X508501Y450663D01*
X508501Y438337D01*
X507458Y435819D01*
X505531Y433892D01*
X503013Y432849D01*
X500287Y432849D01*
G37*
%LPD*%
%LPC*%
G36*
X449487Y432849D02*
X449487Y432849D01*
X446969Y433892D01*
X445042Y435819D01*
X443999Y438337D01*
X443999Y450663D01*
X445042Y453181D01*
X446969Y455108D01*
X449487Y456151D01*
X452213Y456151D01*
X454731Y455108D01*
X456658Y453181D01*
X457701Y450663D01*
X457701Y438337D01*
X456658Y435819D01*
X454731Y433892D01*
X452213Y432849D01*
X449487Y432849D01*
G37*
%LPD*%
%LPC*%
G36*
X195487Y280449D02*
X195487Y280449D01*
X192969Y281492D01*
X191042Y283419D01*
X189999Y285937D01*
X189999Y298263D01*
X191042Y300781D01*
X192969Y302708D01*
X195487Y303751D01*
X198213Y303751D01*
X200731Y302708D01*
X202658Y300781D01*
X203701Y298263D01*
X203701Y285937D01*
X202658Y283419D01*
X200731Y281492D01*
X198213Y280449D01*
X195487Y280449D01*
G37*
%LPD*%
%LPC*%
G36*
X474887Y432849D02*
X474887Y432849D01*
X472369Y433892D01*
X470442Y435819D01*
X469399Y438337D01*
X469399Y450663D01*
X470442Y453181D01*
X472369Y455108D01*
X474887Y456151D01*
X477613Y456151D01*
X480131Y455108D01*
X482058Y453181D01*
X483101Y450663D01*
X483101Y438337D01*
X482058Y435819D01*
X480131Y433892D01*
X477613Y432849D01*
X474887Y432849D01*
G37*
%LPD*%
%LPC*%
G36*
X170087Y280449D02*
X170087Y280449D01*
X167569Y281492D01*
X165642Y283419D01*
X164599Y285937D01*
X164599Y298263D01*
X165642Y300781D01*
X167569Y302708D01*
X170087Y303751D01*
X172813Y303751D01*
X175331Y302708D01*
X177258Y300781D01*
X178301Y298263D01*
X178301Y285937D01*
X177258Y283419D01*
X175331Y281492D01*
X172813Y280449D01*
X170087Y280449D01*
G37*
%LPD*%
%LPC*%
G36*
X297087Y280449D02*
X297087Y280449D01*
X294569Y281492D01*
X292642Y283419D01*
X291599Y285937D01*
X291599Y298263D01*
X292642Y300781D01*
X294569Y302708D01*
X297087Y303751D01*
X299813Y303751D01*
X302331Y302708D01*
X304258Y300781D01*
X305301Y298263D01*
X305301Y285937D01*
X304258Y283419D01*
X302331Y281492D01*
X299813Y280449D01*
X297087Y280449D01*
G37*
%LPD*%
%LPC*%
G36*
X322487Y280449D02*
X322487Y280449D01*
X319969Y281492D01*
X318042Y283419D01*
X316999Y285937D01*
X316999Y298263D01*
X318042Y300781D01*
X319969Y302708D01*
X322487Y303751D01*
X325213Y303751D01*
X327731Y302708D01*
X329658Y300781D01*
X330701Y298263D01*
X330701Y285937D01*
X329658Y283419D01*
X327731Y281492D01*
X325213Y280449D01*
X322487Y280449D01*
G37*
%LPD*%
%LPC*%
G36*
X246287Y280449D02*
X246287Y280449D01*
X243769Y281492D01*
X241842Y283419D01*
X240799Y285937D01*
X240799Y298263D01*
X241842Y300781D01*
X243769Y302708D01*
X246287Y303751D01*
X249013Y303751D01*
X251531Y302708D01*
X253458Y300781D01*
X254501Y298263D01*
X254501Y285937D01*
X253458Y283419D01*
X251531Y281492D01*
X249013Y280449D01*
X246287Y280449D01*
G37*
%LPD*%
%LPC*%
G36*
X271687Y280449D02*
X271687Y280449D01*
X269169Y281492D01*
X267242Y283419D01*
X266199Y285937D01*
X266199Y298263D01*
X267242Y300781D01*
X269169Y302708D01*
X271687Y303751D01*
X274413Y303751D01*
X276931Y302708D01*
X278858Y300781D01*
X279901Y298263D01*
X279901Y285937D01*
X278858Y283419D01*
X276931Y281492D01*
X274413Y280449D01*
X271687Y280449D01*
G37*
%LPD*%
%LPC*%
G36*
X347887Y280449D02*
X347887Y280449D01*
X345369Y281492D01*
X343442Y283419D01*
X342399Y285937D01*
X342399Y298263D01*
X343442Y300781D01*
X345369Y302708D01*
X347887Y303751D01*
X350613Y303751D01*
X353131Y302708D01*
X355058Y300781D01*
X356101Y298263D01*
X356101Y285937D01*
X355058Y283419D01*
X353131Y281492D01*
X350613Y280449D01*
X347887Y280449D01*
G37*
%LPD*%
%LPC*%
G36*
X398687Y280449D02*
X398687Y280449D01*
X396169Y281492D01*
X394242Y283419D01*
X393199Y285937D01*
X393199Y298263D01*
X394242Y300781D01*
X396169Y302708D01*
X398687Y303751D01*
X401413Y303751D01*
X403931Y302708D01*
X405858Y300781D01*
X406901Y298263D01*
X406901Y285937D01*
X405858Y283419D01*
X403931Y281492D01*
X401413Y280449D01*
X398687Y280449D01*
G37*
%LPD*%
%LPC*%
G36*
X220887Y432849D02*
X220887Y432849D01*
X218369Y433892D01*
X216442Y435819D01*
X215399Y438337D01*
X215399Y450663D01*
X216442Y453181D01*
X218369Y455108D01*
X220887Y456151D01*
X223613Y456151D01*
X226131Y455108D01*
X228058Y453181D01*
X229101Y450663D01*
X229101Y438337D01*
X228058Y435819D01*
X226131Y433892D01*
X223613Y432849D01*
X220887Y432849D01*
G37*
%LPD*%
%LPC*%
G36*
X271687Y432849D02*
X271687Y432849D01*
X269169Y433892D01*
X267242Y435819D01*
X266199Y438337D01*
X266199Y450663D01*
X267242Y453181D01*
X269169Y455108D01*
X271687Y456151D01*
X274413Y456151D01*
X276931Y455108D01*
X278858Y453181D01*
X279901Y450663D01*
X279901Y438337D01*
X278858Y435819D01*
X276931Y433892D01*
X274413Y432849D01*
X271687Y432849D01*
G37*
%LPD*%
%LPC*%
G36*
X525687Y432849D02*
X525687Y432849D01*
X523169Y433892D01*
X521242Y435819D01*
X520199Y438337D01*
X520199Y450663D01*
X521242Y453181D01*
X523169Y455108D01*
X525687Y456151D01*
X528413Y456151D01*
X530931Y455108D01*
X532858Y453181D01*
X533901Y450663D01*
X533901Y438337D01*
X532858Y435819D01*
X530931Y433892D01*
X528413Y432849D01*
X525687Y432849D01*
G37*
%LPD*%
%LPC*%
G36*
X373287Y280449D02*
X373287Y280449D01*
X370769Y281492D01*
X368842Y283419D01*
X367799Y285937D01*
X367799Y298263D01*
X368842Y300781D01*
X370769Y302708D01*
X373287Y303751D01*
X376013Y303751D01*
X378531Y302708D01*
X380458Y300781D01*
X381501Y298263D01*
X381501Y285937D01*
X380458Y283419D01*
X378531Y281492D01*
X376013Y280449D01*
X373287Y280449D01*
G37*
%LPD*%
%LPC*%
G36*
X424087Y280449D02*
X424087Y280449D01*
X421569Y281492D01*
X419642Y283419D01*
X418599Y285937D01*
X418599Y298263D01*
X419642Y300781D01*
X421569Y302708D01*
X424087Y303751D01*
X426813Y303751D01*
X429331Y302708D01*
X431258Y300781D01*
X432301Y298263D01*
X432301Y285937D01*
X431258Y283419D01*
X429331Y281492D01*
X426813Y280449D01*
X424087Y280449D01*
G37*
%LPD*%
%LPC*%
G36*
X182787Y336049D02*
X182787Y336049D01*
X180269Y337092D01*
X178342Y339019D01*
X177299Y341537D01*
X177299Y344263D01*
X178342Y346781D01*
X180269Y348708D01*
X182787Y349751D01*
X185513Y349751D01*
X188031Y348708D01*
X189958Y346781D01*
X191001Y344263D01*
X191001Y341537D01*
X189958Y339019D01*
X188031Y337092D01*
X185513Y336049D01*
X182787Y336049D01*
G37*
%LPD*%
%LPC*%
G36*
X157387Y386849D02*
X157387Y386849D01*
X154869Y387892D01*
X152942Y389819D01*
X151899Y392337D01*
X151899Y395063D01*
X152942Y397581D01*
X154869Y399508D01*
X157387Y400551D01*
X160113Y400551D01*
X162631Y399508D01*
X164558Y397581D01*
X165601Y395063D01*
X165601Y392337D01*
X164558Y389819D01*
X162631Y387892D01*
X160113Y386849D01*
X157387Y386849D01*
G37*
%LPD*%
%LPC*%
G36*
X182787Y361449D02*
X182787Y361449D01*
X180269Y362492D01*
X178342Y364419D01*
X177299Y366937D01*
X177299Y369663D01*
X178342Y372181D01*
X180269Y374108D01*
X182787Y375151D01*
X185513Y375151D01*
X188031Y374108D01*
X189958Y372181D01*
X191001Y369663D01*
X191001Y366937D01*
X189958Y364419D01*
X188031Y362492D01*
X185513Y361449D01*
X182787Y361449D01*
G37*
%LPD*%
%LPC*%
G36*
X157387Y361449D02*
X157387Y361449D01*
X154869Y362492D01*
X152942Y364419D01*
X151899Y366937D01*
X151899Y369663D01*
X152942Y372181D01*
X154869Y374108D01*
X157387Y375151D01*
X160113Y375151D01*
X162631Y374108D01*
X164558Y372181D01*
X165601Y369663D01*
X165601Y366937D01*
X164558Y364419D01*
X162631Y362492D01*
X160113Y361449D01*
X157387Y361449D01*
G37*
%LPD*%
%LPC*%
G36*
X157387Y336049D02*
X157387Y336049D01*
X154869Y337092D01*
X152942Y339019D01*
X151899Y341537D01*
X151899Y344263D01*
X152942Y346781D01*
X154869Y348708D01*
X157387Y349751D01*
X160113Y349751D01*
X162631Y348708D01*
X164558Y346781D01*
X165601Y344263D01*
X165601Y341537D01*
X164558Y339019D01*
X162631Y337092D01*
X160113Y336049D01*
X157387Y336049D01*
G37*
%LPD*%
%LPC*%
G36*
X182787Y386849D02*
X182787Y386849D01*
X180269Y387892D01*
X178342Y389819D01*
X177299Y392337D01*
X177299Y395063D01*
X178342Y397581D01*
X180269Y399508D01*
X182787Y400551D01*
X185513Y400551D01*
X188031Y399508D01*
X189958Y397581D01*
X191001Y395063D01*
X191001Y392337D01*
X189958Y389819D01*
X188031Y387892D01*
X185513Y386849D01*
X182787Y386849D01*
G37*
%LPD*%
%LPC*%
G36*
X52323Y296798D02*
X52323Y296798D01*
X52323Y307121D01*
X53596Y306920D01*
X55383Y306339D01*
X57057Y305486D01*
X58578Y304381D01*
X59906Y303053D01*
X61011Y301532D01*
X61864Y299858D01*
X62445Y298071D01*
X62646Y296798D01*
X52323Y296798D01*
G37*
%LPD*%
%LPC*%
G36*
X52323Y179323D02*
X52323Y179323D01*
X52323Y189646D01*
X53596Y189445D01*
X55383Y188864D01*
X57057Y188011D01*
X58578Y186906D01*
X59906Y185578D01*
X61011Y184057D01*
X61864Y182383D01*
X62445Y180596D01*
X62646Y179323D01*
X52323Y179323D01*
G37*
%LPD*%
%LPC*%
G36*
X52323Y118998D02*
X52323Y118998D01*
X52323Y129321D01*
X53596Y129120D01*
X55383Y128539D01*
X57057Y127686D01*
X58578Y126581D01*
X59906Y125253D01*
X61011Y123732D01*
X61864Y122058D01*
X62445Y120271D01*
X62646Y118998D01*
X52323Y118998D01*
G37*
%LPD*%
%LPC*%
G36*
X52323Y433323D02*
X52323Y433323D01*
X52323Y443646D01*
X53596Y443445D01*
X55383Y442864D01*
X57057Y442011D01*
X58578Y440906D01*
X59906Y439578D01*
X61011Y438057D01*
X61864Y436383D01*
X62445Y434596D01*
X62646Y433323D01*
X52323Y433323D01*
G37*
%LPD*%
%LPC*%
G36*
X52323Y293752D02*
X52323Y293752D01*
X62646Y293752D01*
X62445Y292479D01*
X61864Y290692D01*
X61011Y289018D01*
X59906Y287497D01*
X58578Y286169D01*
X57057Y285064D01*
X55383Y284211D01*
X53596Y283630D01*
X52323Y283429D01*
X52323Y293752D01*
G37*
%LPD*%
%LPC*%
G36*
X52323Y115952D02*
X52323Y115952D01*
X62646Y115952D01*
X62445Y114679D01*
X61864Y112892D01*
X61011Y111218D01*
X59906Y109697D01*
X58578Y108369D01*
X57057Y107264D01*
X55383Y106411D01*
X53596Y105830D01*
X52323Y105629D01*
X52323Y115952D01*
G37*
%LPD*%
%LPC*%
G36*
X38954Y433323D02*
X38954Y433323D01*
X39155Y434596D01*
X39736Y436383D01*
X40589Y438057D01*
X41694Y439578D01*
X43022Y440906D01*
X44543Y442011D01*
X46217Y442864D01*
X48004Y443445D01*
X49277Y443646D01*
X49277Y433323D01*
X38954Y433323D01*
G37*
%LPD*%
%LPC*%
G36*
X38954Y118998D02*
X38954Y118998D01*
X39155Y120271D01*
X39736Y122058D01*
X40589Y123732D01*
X41694Y125253D01*
X43022Y126581D01*
X44543Y127686D01*
X46217Y128539D01*
X48004Y129120D01*
X49277Y129321D01*
X49277Y118998D01*
X38954Y118998D01*
G37*
%LPD*%
%LPC*%
G36*
X38954Y179323D02*
X38954Y179323D01*
X39155Y180596D01*
X39736Y182383D01*
X40589Y184057D01*
X41694Y185578D01*
X43022Y186906D01*
X44543Y188011D01*
X46217Y188864D01*
X48004Y189445D01*
X49277Y189646D01*
X49277Y179323D01*
X38954Y179323D01*
G37*
%LPD*%
%LPC*%
G36*
X38954Y296798D02*
X38954Y296798D01*
X39155Y298071D01*
X39736Y299858D01*
X40589Y301532D01*
X41694Y303053D01*
X43022Y304381D01*
X44543Y305486D01*
X46217Y306339D01*
X48004Y306920D01*
X49277Y307121D01*
X49277Y296798D01*
X38954Y296798D01*
G37*
%LPD*%
%LPC*%
G36*
X52323Y430277D02*
X52323Y430277D01*
X62646Y430277D01*
X62445Y429004D01*
X61864Y427217D01*
X61011Y425543D01*
X59906Y424022D01*
X58578Y422694D01*
X57057Y421589D01*
X55383Y420736D01*
X53596Y420155D01*
X52323Y419954D01*
X52323Y430277D01*
G37*
%LPD*%
%LPC*%
G36*
X52323Y176277D02*
X52323Y176277D01*
X62646Y176277D01*
X62445Y175004D01*
X61864Y173217D01*
X61011Y171543D01*
X59906Y170022D01*
X58578Y168694D01*
X57057Y167589D01*
X55383Y166736D01*
X53596Y166155D01*
X52323Y165954D01*
X52323Y176277D01*
G37*
%LPD*%
%LPC*%
G36*
X48004Y166155D02*
X48004Y166155D01*
X46217Y166736D01*
X44543Y167589D01*
X43022Y168694D01*
X41694Y170022D01*
X40589Y171543D01*
X39736Y173217D01*
X39155Y175004D01*
X38954Y176277D01*
X49277Y176277D01*
X49277Y165954D01*
X48004Y166155D01*
G37*
%LPD*%
%LPC*%
G36*
X48004Y420155D02*
X48004Y420155D01*
X46217Y420736D01*
X44543Y421589D01*
X43022Y422694D01*
X41694Y424022D01*
X40589Y425543D01*
X39736Y427217D01*
X39155Y429004D01*
X38954Y430277D01*
X49277Y430277D01*
X49277Y419954D01*
X48004Y420155D01*
G37*
%LPD*%
%LPC*%
G36*
X48004Y105830D02*
X48004Y105830D01*
X46217Y106411D01*
X44543Y107264D01*
X43022Y108369D01*
X41694Y109697D01*
X40589Y111218D01*
X39736Y112892D01*
X39155Y114679D01*
X38954Y115952D01*
X49277Y115952D01*
X49277Y105629D01*
X48004Y105830D01*
G37*
%LPD*%
%LPC*%
G36*
X48004Y283630D02*
X48004Y283630D01*
X46217Y284211D01*
X44543Y285064D01*
X43022Y286169D01*
X41694Y287497D01*
X40589Y289018D01*
X39736Y290692D01*
X39155Y292479D01*
X38954Y293752D01*
X49277Y293752D01*
X49277Y283429D01*
X48004Y283630D01*
G37*
%LPD*%
%LPC*%
G36*
X198373Y446023D02*
X198373Y446023D01*
X198373Y456482D01*
X198991Y456359D01*
X200327Y455805D01*
X201530Y455002D01*
X202552Y453980D01*
X203355Y452777D01*
X203909Y451441D01*
X204191Y450023D01*
X204191Y446023D01*
X198373Y446023D01*
G37*
%LPD*%
%LPC*%
G36*
X198373Y442977D02*
X198373Y442977D01*
X204191Y442977D01*
X204191Y438977D01*
X203909Y437559D01*
X203355Y436223D01*
X202552Y435020D01*
X201530Y433998D01*
X200327Y433195D01*
X198991Y432641D01*
X198373Y432518D01*
X198373Y442977D01*
G37*
%LPD*%
%LPC*%
G36*
X189509Y446023D02*
X189509Y446023D01*
X189509Y450023D01*
X189791Y451441D01*
X190345Y452777D01*
X191148Y453980D01*
X192170Y455002D01*
X193373Y455805D01*
X194709Y456359D01*
X195327Y456482D01*
X195327Y446023D01*
X189509Y446023D01*
G37*
%LPD*%
%LPC*%
G36*
X194709Y432641D02*
X194709Y432641D01*
X193373Y433195D01*
X192170Y433998D01*
X191148Y435020D01*
X190345Y436223D01*
X189791Y437559D01*
X189509Y438977D01*
X189509Y442977D01*
X195327Y442977D01*
X195327Y432518D01*
X194709Y432641D01*
G37*
%LPD*%
%LPC*%
G36*
X196849Y444499D02*
X196849Y444499D01*
X196849Y444501D01*
X196851Y444501D01*
X196851Y444499D01*
X196849Y444499D01*
G37*
%LPD*%
%LPC*%
G36*
X50799Y117474D02*
X50799Y117474D01*
X50799Y117476D01*
X50801Y117476D01*
X50801Y117474D01*
X50799Y117474D01*
G37*
%LPD*%
%LPC*%
G36*
X50799Y431799D02*
X50799Y431799D01*
X50799Y431801D01*
X50801Y431801D01*
X50801Y431799D01*
X50799Y431799D01*
G37*
%LPD*%
%LPC*%
G36*
X50799Y295274D02*
X50799Y295274D01*
X50799Y295276D01*
X50801Y295276D01*
X50801Y295274D01*
X50799Y295274D01*
G37*
%LPD*%
%LPC*%
G36*
X50799Y177799D02*
X50799Y177799D01*
X50799Y177801D01*
X50801Y177801D01*
X50801Y177799D01*
X50799Y177799D01*
G37*
%LPD*%
%LPC*%
G36*
X187324Y142874D02*
X187324Y142874D01*
X187324Y142876D01*
X187326Y142876D01*
X187326Y142874D01*
X187324Y142874D01*
G37*
%LPD*%
D10*
X458978Y142875D02*
X468122Y142875D01*
X468122Y130175D02*
X458978Y130175D01*
X458978Y155575D02*
X468122Y155575D01*
X468122Y168275D02*
X458978Y168275D01*
D11*
X50800Y355600D03*
X50800Y381000D03*
X50800Y406400D03*
X50800Y431800D03*
X50800Y66675D03*
X50800Y92075D03*
X50800Y117475D03*
X50800Y142875D03*
X307975Y193675D03*
X307975Y117475D03*
X269875Y193675D03*
X269875Y117475D03*
X346075Y193675D03*
X346075Y117475D03*
X50800Y269875D03*
X50800Y295275D03*
X50800Y320675D03*
D12*
X171450Y296900D02*
X171450Y287300D01*
X196850Y287300D02*
X196850Y296900D01*
X222250Y296900D02*
X222250Y287300D01*
X247650Y287300D02*
X247650Y296900D01*
X273050Y296900D02*
X273050Y287300D01*
X298450Y287300D02*
X298450Y296900D01*
X323850Y296900D02*
X323850Y287300D01*
X349250Y287300D02*
X349250Y296900D01*
X374650Y296900D02*
X374650Y287300D01*
X400050Y287300D02*
X400050Y296900D01*
X425450Y296900D02*
X425450Y287300D01*
X450850Y287300D02*
X450850Y296900D01*
X171450Y439700D02*
X171450Y449300D01*
X196850Y449300D02*
X196850Y439700D01*
X222250Y439700D02*
X222250Y449300D01*
X374650Y449300D02*
X374650Y439700D01*
X400050Y439700D02*
X400050Y449300D01*
X425450Y449300D02*
X425450Y439700D01*
X450850Y439700D02*
X450850Y449300D01*
X527050Y449300D02*
X527050Y439700D01*
X527050Y296900D02*
X527050Y287300D01*
X501650Y287300D02*
X501650Y296900D01*
X476250Y296900D02*
X476250Y287300D01*
X501650Y439700D02*
X501650Y449300D01*
X476250Y449300D02*
X476250Y439700D01*
X247650Y439700D02*
X247650Y449300D01*
D13*
X184150Y393700D03*
X184150Y368300D03*
X184150Y342900D03*
D12*
X349250Y439700D02*
X349250Y449300D01*
X323850Y449300D02*
X323850Y439700D01*
X298450Y439700D02*
X298450Y449300D01*
X273050Y449300D02*
X273050Y439700D01*
D13*
X158750Y393700D03*
X158750Y368300D03*
X158750Y342900D03*
D14*
X133350Y142875D03*
X187325Y142875D03*
D11*
X50800Y177800D03*
X50800Y203200D03*
X50800Y228600D03*
D15*
X355600Y155575D02*
X463550Y155575D01*
X339725Y139700D02*
X320675Y139700D01*
X307975Y127000D01*
X307975Y117475D01*
X339725Y139700D02*
X355600Y155575D01*
X344196Y168275D02*
X463550Y168275D01*
X344196Y168275D02*
X334671Y158750D01*
X311150Y158750D02*
X269875Y117475D01*
X311150Y158750D02*
X334671Y158750D01*
X358775Y130175D02*
X463550Y130175D01*
X358775Y130175D02*
X346075Y117475D01*
X501650Y203200D02*
X501650Y292100D01*
X501650Y203200D02*
X492125Y193675D01*
X346075Y193675D01*
X476250Y222250D02*
X476250Y292100D01*
X463550Y209550D02*
X317500Y209550D01*
X307975Y200025D01*
X307975Y193675D01*
X463550Y209550D02*
X476250Y222250D01*
X450850Y231775D02*
X450850Y292100D01*
X269875Y206375D02*
X269875Y193675D01*
X441325Y222250D02*
X450850Y231775D01*
X441325Y222250D02*
X285750Y222250D01*
X269875Y206375D01*
X51125Y270200D02*
X50800Y269875D01*
D16*
X50800Y355600D02*
X92075Y355600D01*
X92075Y320675D01*
X50800Y320675D01*
X92075Y320675D02*
X92075Y203200D01*
X50800Y203200D01*
X92075Y203200D02*
X92075Y142875D01*
X50800Y142875D01*
X92075Y355600D02*
X92075Y457200D01*
X98425Y463550D01*
X241300Y463550D01*
X247650Y457200D01*
X247650Y444500D01*
X133350Y438150D02*
X133350Y142875D01*
X133350Y438150D02*
X139700Y444500D01*
X171450Y444500D01*
M02*
