G04 EAGLE Gerber X2 export*
%TF.Part,Single*%
%TF.FileFunction,Copper,L2,Bot,Mixed*%
%TF.FilePolarity,Positive*%
%TF.GenerationSoftware,Autodesk,EAGLE,8.7.0*%
%TF.CreationDate,2018-03-25T19:34:28Z*%
G75*
%MOMM*%
%FSLAX34Y34*%
%LPD*%
%AMOC8*
5,1,8,0,0,1.08239X$1,22.5*%
G01*
%ADD10C,0.914400*%
%ADD11C,1.879600*%
%ADD12C,0.960000*%
%ADD13C,0.960000*%
%ADD14C,0.152400*%

G36*
X544214Y24655D02*
X544214Y24655D01*
X544311Y24664D01*
X544335Y24674D01*
X544360Y24679D01*
X544446Y24724D01*
X544535Y24764D01*
X544555Y24781D01*
X544578Y24794D01*
X544645Y24864D01*
X544717Y24930D01*
X544729Y24953D01*
X544747Y24972D01*
X544788Y25060D01*
X544835Y25146D01*
X544840Y25171D01*
X544851Y25195D01*
X544861Y25292D01*
X544879Y25388D01*
X544875Y25414D01*
X544878Y25439D01*
X544857Y25535D01*
X544843Y25631D01*
X544831Y25654D01*
X544826Y25680D01*
X544775Y25764D01*
X544731Y25850D01*
X544713Y25869D01*
X544699Y25891D01*
X544625Y25954D01*
X544556Y26023D01*
X544527Y26038D01*
X544512Y26051D01*
X544482Y26063D01*
X544434Y26089D01*
X540445Y30079D01*
X538289Y35283D01*
X538289Y40917D01*
X540445Y46121D01*
X544429Y50105D01*
X549633Y52261D01*
X555267Y52261D01*
X560471Y50105D01*
X564466Y46111D01*
X564498Y46058D01*
X564544Y45972D01*
X564562Y45954D01*
X564576Y45932D01*
X564652Y45870D01*
X564722Y45803D01*
X564746Y45792D01*
X564766Y45775D01*
X564857Y45740D01*
X564945Y45699D01*
X564971Y45696D01*
X564995Y45687D01*
X565093Y45683D01*
X565189Y45672D01*
X565215Y45678D01*
X565241Y45677D01*
X565335Y45704D01*
X565430Y45724D01*
X565452Y45738D01*
X565477Y45745D01*
X565557Y45801D01*
X565641Y45851D01*
X565658Y45871D01*
X565679Y45885D01*
X565738Y45964D01*
X565801Y46038D01*
X565811Y46062D01*
X565826Y46083D01*
X565856Y46175D01*
X565893Y46266D01*
X565896Y46298D01*
X565902Y46317D01*
X565902Y46350D01*
X565911Y46432D01*
X565911Y461568D01*
X565896Y461664D01*
X565886Y461761D01*
X565876Y461785D01*
X565872Y461810D01*
X565826Y461896D01*
X565786Y461985D01*
X565769Y462005D01*
X565756Y462028D01*
X565686Y462095D01*
X565620Y462166D01*
X565597Y462179D01*
X565578Y462197D01*
X565490Y462238D01*
X565404Y462285D01*
X565379Y462290D01*
X565355Y462301D01*
X565258Y462311D01*
X565162Y462329D01*
X565136Y462325D01*
X565111Y462328D01*
X565015Y462307D01*
X564919Y462293D01*
X564896Y462281D01*
X564870Y462276D01*
X564787Y462226D01*
X564700Y462181D01*
X564681Y462163D01*
X564659Y462149D01*
X564596Y462075D01*
X564528Y462006D01*
X564512Y461977D01*
X564499Y461962D01*
X564487Y461932D01*
X564461Y461885D01*
X560471Y457895D01*
X555267Y455739D01*
X549633Y455739D01*
X544429Y457895D01*
X540445Y461879D01*
X538289Y467083D01*
X538289Y472717D01*
X540445Y477921D01*
X544439Y481916D01*
X544492Y481948D01*
X544578Y481994D01*
X544596Y482012D01*
X544618Y482026D01*
X544680Y482102D01*
X544747Y482172D01*
X544758Y482196D01*
X544775Y482216D01*
X544810Y482307D01*
X544851Y482395D01*
X544854Y482421D01*
X544863Y482445D01*
X544867Y482543D01*
X544878Y482639D01*
X544872Y482665D01*
X544873Y482691D01*
X544846Y482785D01*
X544826Y482880D01*
X544812Y482902D01*
X544805Y482927D01*
X544749Y483007D01*
X544699Y483091D01*
X544679Y483108D01*
X544665Y483129D01*
X544586Y483188D01*
X544512Y483251D01*
X544488Y483261D01*
X544467Y483276D01*
X544375Y483306D01*
X544284Y483343D01*
X544252Y483346D01*
X544233Y483352D01*
X544200Y483352D01*
X544118Y483361D01*
X46432Y483361D01*
X46336Y483346D01*
X46239Y483336D01*
X46215Y483326D01*
X46190Y483322D01*
X46104Y483276D01*
X46015Y483236D01*
X45995Y483219D01*
X45972Y483206D01*
X45905Y483136D01*
X45834Y483070D01*
X45821Y483047D01*
X45803Y483028D01*
X45762Y482940D01*
X45715Y482854D01*
X45710Y482829D01*
X45699Y482805D01*
X45689Y482708D01*
X45671Y482612D01*
X45675Y482586D01*
X45672Y482561D01*
X45693Y482465D01*
X45707Y482369D01*
X45719Y482346D01*
X45724Y482320D01*
X45774Y482237D01*
X45819Y482150D01*
X45837Y482131D01*
X45851Y482109D01*
X45925Y482046D01*
X45994Y481978D01*
X46023Y481962D01*
X46038Y481949D01*
X46068Y481937D01*
X46115Y481911D01*
X50105Y477921D01*
X52261Y472717D01*
X52261Y467083D01*
X50105Y461879D01*
X46121Y457895D01*
X40917Y455739D01*
X35283Y455739D01*
X30079Y457895D01*
X26085Y461889D01*
X26052Y461942D01*
X26006Y462028D01*
X25988Y462046D01*
X25974Y462068D01*
X25899Y462130D01*
X25828Y462197D01*
X25804Y462208D01*
X25784Y462225D01*
X25693Y462260D01*
X25605Y462301D01*
X25579Y462304D01*
X25555Y462313D01*
X25457Y462317D01*
X25361Y462328D01*
X25335Y462322D01*
X25309Y462323D01*
X25216Y462296D01*
X25120Y462276D01*
X25098Y462262D01*
X25073Y462255D01*
X24993Y462199D01*
X24909Y462149D01*
X24892Y462130D01*
X24871Y462115D01*
X24813Y462036D01*
X24749Y461962D01*
X24739Y461938D01*
X24724Y461917D01*
X24694Y461825D01*
X24657Y461734D01*
X24654Y461702D01*
X24648Y461683D01*
X24648Y461650D01*
X24639Y461568D01*
X24639Y46432D01*
X24655Y46336D01*
X24664Y46239D01*
X24674Y46215D01*
X24679Y46190D01*
X24724Y46104D01*
X24764Y46015D01*
X24781Y45995D01*
X24794Y45972D01*
X24864Y45905D01*
X24930Y45833D01*
X24953Y45821D01*
X24972Y45803D01*
X25060Y45762D01*
X25146Y45715D01*
X25171Y45710D01*
X25195Y45699D01*
X25292Y45689D01*
X25388Y45671D01*
X25414Y45675D01*
X25439Y45672D01*
X25535Y45693D01*
X25631Y45707D01*
X25654Y45719D01*
X25680Y45724D01*
X25764Y45775D01*
X25850Y45819D01*
X25869Y45837D01*
X25891Y45851D01*
X25954Y45925D01*
X26023Y45994D01*
X26038Y46023D01*
X26051Y46038D01*
X26063Y46068D01*
X26089Y46116D01*
X30079Y50105D01*
X35283Y52261D01*
X40917Y52261D01*
X46121Y50105D01*
X50105Y46121D01*
X52261Y40917D01*
X52261Y35283D01*
X50105Y30079D01*
X46111Y26085D01*
X46058Y26052D01*
X45972Y26006D01*
X45954Y25988D01*
X45932Y25974D01*
X45870Y25899D01*
X45803Y25828D01*
X45792Y25804D01*
X45775Y25784D01*
X45740Y25693D01*
X45699Y25605D01*
X45696Y25579D01*
X45687Y25555D01*
X45683Y25457D01*
X45672Y25361D01*
X45678Y25335D01*
X45677Y25309D01*
X45704Y25216D01*
X45724Y25120D01*
X45738Y25098D01*
X45745Y25073D01*
X45801Y24993D01*
X45851Y24909D01*
X45870Y24892D01*
X45885Y24871D01*
X45964Y24813D01*
X46038Y24749D01*
X46062Y24739D01*
X46083Y24724D01*
X46175Y24694D01*
X46266Y24657D01*
X46298Y24654D01*
X46317Y24648D01*
X46350Y24648D01*
X46432Y24639D01*
X544118Y24639D01*
X544214Y24655D01*
G37*
%LPC*%
G36*
X48523Y55226D02*
X48523Y55226D01*
X44315Y56969D01*
X41094Y60190D01*
X39351Y64398D01*
X39351Y68952D01*
X41094Y73160D01*
X44315Y76381D01*
X48523Y78124D01*
X53077Y78124D01*
X57285Y76381D01*
X60506Y73160D01*
X61832Y69958D01*
X61894Y69858D01*
X61954Y69758D01*
X61959Y69754D01*
X61962Y69749D01*
X62052Y69674D01*
X62141Y69598D01*
X62147Y69596D01*
X62151Y69592D01*
X62260Y69550D01*
X62369Y69506D01*
X62376Y69505D01*
X62381Y69504D01*
X62399Y69503D01*
X62536Y69488D01*
X87420Y69488D01*
X87510Y69502D01*
X87601Y69510D01*
X87630Y69522D01*
X87662Y69527D01*
X87743Y69570D01*
X87827Y69606D01*
X87859Y69632D01*
X87880Y69643D01*
X87902Y69666D01*
X87958Y69711D01*
X98564Y80317D01*
X98617Y80391D01*
X98677Y80461D01*
X98689Y80491D01*
X98708Y80517D01*
X98735Y80604D01*
X98769Y80689D01*
X98773Y80730D01*
X98780Y80752D01*
X98779Y80784D01*
X98787Y80855D01*
X98787Y182140D01*
X119485Y202838D01*
X239820Y202838D01*
X239910Y202852D01*
X240001Y202860D01*
X240030Y202872D01*
X240062Y202877D01*
X240143Y202920D01*
X240227Y202956D01*
X240259Y202982D01*
X240280Y202993D01*
X240302Y203016D01*
X240358Y203061D01*
X276364Y239067D01*
X278235Y240938D01*
X433495Y240938D01*
X433585Y240952D01*
X433676Y240960D01*
X433705Y240972D01*
X433737Y240977D01*
X433818Y241020D01*
X433902Y241056D01*
X433934Y241082D01*
X433955Y241093D01*
X433977Y241116D01*
X434033Y241161D01*
X435114Y242242D01*
X435167Y242316D01*
X435227Y242386D01*
X435239Y242416D01*
X435258Y242442D01*
X435285Y242529D01*
X435319Y242614D01*
X435323Y242655D01*
X435330Y242677D01*
X435329Y242709D01*
X435337Y242780D01*
X435337Y379520D01*
X435323Y379610D01*
X435315Y379701D01*
X435303Y379730D01*
X435298Y379762D01*
X435255Y379843D01*
X435219Y379927D01*
X435193Y379959D01*
X435182Y379980D01*
X435159Y380002D01*
X435114Y380058D01*
X380444Y434729D01*
X380427Y434740D01*
X380415Y434756D01*
X380328Y434812D01*
X380244Y434872D01*
X380225Y434878D01*
X380208Y434889D01*
X380108Y434914D01*
X380009Y434945D01*
X379989Y434944D01*
X379970Y434949D01*
X379867Y434941D01*
X379763Y434938D01*
X379744Y434931D01*
X379724Y434930D01*
X379629Y434889D01*
X379532Y434854D01*
X379516Y434841D01*
X379498Y434833D01*
X379367Y434729D01*
X378531Y433892D01*
X376013Y432849D01*
X373287Y432849D01*
X370769Y433892D01*
X368842Y435819D01*
X367799Y438337D01*
X367799Y450663D01*
X368842Y453181D01*
X370769Y455108D01*
X373287Y456151D01*
X376013Y456151D01*
X378531Y455108D01*
X380458Y453181D01*
X381501Y450663D01*
X381501Y441942D01*
X381515Y441852D01*
X381523Y441761D01*
X381535Y441732D01*
X381540Y441700D01*
X381583Y441619D01*
X381619Y441535D01*
X381645Y441503D01*
X381656Y441482D01*
X381679Y441460D01*
X381724Y441404D01*
X440963Y382165D01*
X440963Y240135D01*
X436140Y235312D01*
X280880Y235312D01*
X280790Y235298D01*
X280699Y235290D01*
X280670Y235278D01*
X280638Y235273D01*
X280557Y235230D01*
X280473Y235194D01*
X280441Y235168D01*
X280420Y235157D01*
X280398Y235134D01*
X280342Y235089D01*
X244336Y199083D01*
X242465Y197212D01*
X122130Y197212D01*
X122040Y197198D01*
X121949Y197190D01*
X121920Y197178D01*
X121888Y197173D01*
X121807Y197130D01*
X121723Y197094D01*
X121691Y197068D01*
X121670Y197057D01*
X121648Y197034D01*
X121592Y196989D01*
X104636Y180033D01*
X104583Y179959D01*
X104523Y179889D01*
X104511Y179859D01*
X104492Y179833D01*
X104465Y179746D01*
X104431Y179661D01*
X104427Y179620D01*
X104420Y179598D01*
X104421Y179566D01*
X104413Y179495D01*
X104413Y78210D01*
X90065Y63862D01*
X62536Y63862D01*
X62421Y63843D01*
X62305Y63826D01*
X62299Y63824D01*
X62293Y63823D01*
X62190Y63768D01*
X62085Y63715D01*
X62081Y63710D01*
X62075Y63707D01*
X61996Y63623D01*
X61913Y63539D01*
X61910Y63533D01*
X61906Y63529D01*
X61898Y63512D01*
X61832Y63392D01*
X60506Y60190D01*
X57285Y56969D01*
X53077Y55226D01*
X48523Y55226D01*
G37*
%LPD*%
%LPC*%
G36*
X48523Y217151D02*
X48523Y217151D01*
X44315Y218894D01*
X41094Y222115D01*
X39351Y226323D01*
X39351Y230877D01*
X41094Y235085D01*
X44315Y238306D01*
X48523Y240049D01*
X53077Y240049D01*
X56280Y238722D01*
X56393Y238696D01*
X56507Y238667D01*
X56513Y238667D01*
X56519Y238666D01*
X56636Y238677D01*
X56752Y238686D01*
X56758Y238689D01*
X56764Y238689D01*
X56872Y238737D01*
X56978Y238782D01*
X56984Y238787D01*
X56989Y238789D01*
X57003Y238802D01*
X57109Y238887D01*
X76339Y258117D01*
X78210Y259988D01*
X401745Y259988D01*
X401835Y260002D01*
X401926Y260010D01*
X401955Y260022D01*
X401987Y260027D01*
X402068Y260070D01*
X402152Y260106D01*
X402184Y260132D01*
X402205Y260143D01*
X402227Y260166D01*
X402283Y260211D01*
X409714Y267642D01*
X409767Y267716D01*
X409827Y267786D01*
X409839Y267816D01*
X409858Y267842D01*
X409885Y267929D01*
X409919Y268014D01*
X409923Y268055D01*
X409930Y268077D01*
X409929Y268109D01*
X409937Y268180D01*
X409937Y379520D01*
X409923Y379610D01*
X409915Y379701D01*
X409903Y379730D01*
X409898Y379762D01*
X409855Y379843D01*
X409819Y379927D01*
X409793Y379959D01*
X409782Y379980D01*
X409759Y380002D01*
X409714Y380058D01*
X355044Y434729D01*
X355027Y434740D01*
X355015Y434756D01*
X354928Y434812D01*
X354844Y434872D01*
X354825Y434878D01*
X354808Y434889D01*
X354708Y434914D01*
X354609Y434945D01*
X354589Y434944D01*
X354570Y434949D01*
X354467Y434941D01*
X354363Y434938D01*
X354344Y434931D01*
X354324Y434930D01*
X354230Y434889D01*
X354132Y434854D01*
X354116Y434841D01*
X354098Y434833D01*
X353967Y434729D01*
X353131Y433892D01*
X350613Y432849D01*
X347887Y432849D01*
X345369Y433892D01*
X343442Y435819D01*
X342399Y438337D01*
X342399Y450663D01*
X343442Y453181D01*
X345369Y455108D01*
X347887Y456151D01*
X350613Y456151D01*
X353131Y455108D01*
X355058Y453181D01*
X356101Y450663D01*
X356101Y441942D01*
X356115Y441852D01*
X356123Y441761D01*
X356135Y441732D01*
X356140Y441700D01*
X356183Y441619D01*
X356219Y441535D01*
X356245Y441503D01*
X356256Y441482D01*
X356279Y441460D01*
X356324Y441404D01*
X413692Y384036D01*
X415563Y382165D01*
X415563Y265535D01*
X406261Y256233D01*
X404390Y254362D01*
X80855Y254362D01*
X80765Y254348D01*
X80674Y254340D01*
X80645Y254328D01*
X80613Y254323D01*
X80532Y254280D01*
X80448Y254244D01*
X80416Y254218D01*
X80395Y254207D01*
X80373Y254184D01*
X80317Y254139D01*
X61087Y234909D01*
X61020Y234815D01*
X60949Y234721D01*
X60947Y234715D01*
X60944Y234710D01*
X60910Y234599D01*
X60873Y234487D01*
X60873Y234481D01*
X60871Y234475D01*
X60874Y234358D01*
X60875Y234241D01*
X60878Y234234D01*
X60878Y234229D01*
X60884Y234211D01*
X60922Y234080D01*
X62249Y230877D01*
X62249Y226323D01*
X60506Y222115D01*
X57285Y218894D01*
X53077Y217151D01*
X48523Y217151D01*
G37*
%LPD*%
%LPC*%
G36*
X48523Y258426D02*
X48523Y258426D01*
X44315Y260169D01*
X41094Y263390D01*
X39351Y267598D01*
X39351Y272152D01*
X41094Y276360D01*
X44315Y279581D01*
X48523Y281324D01*
X53077Y281324D01*
X57285Y279581D01*
X60506Y276360D01*
X61832Y273158D01*
X61894Y273058D01*
X61954Y272958D01*
X61959Y272954D01*
X61962Y272949D01*
X62052Y272874D01*
X62141Y272798D01*
X62147Y272796D01*
X62151Y272792D01*
X62260Y272750D01*
X62369Y272706D01*
X62376Y272705D01*
X62381Y272704D01*
X62399Y272703D01*
X62536Y272688D01*
X392220Y272688D01*
X392310Y272702D01*
X392401Y272710D01*
X392430Y272722D01*
X392462Y272727D01*
X392543Y272770D01*
X392627Y272806D01*
X392659Y272832D01*
X392680Y272843D01*
X392702Y272866D01*
X392758Y272911D01*
X397014Y277167D01*
X397067Y277241D01*
X397127Y277311D01*
X397139Y277341D01*
X397158Y277367D01*
X397185Y277454D01*
X397219Y277539D01*
X397223Y277580D01*
X397230Y277602D01*
X397229Y277634D01*
X397237Y277705D01*
X397237Y280541D01*
X397218Y280656D01*
X397201Y280772D01*
X397199Y280778D01*
X397198Y280784D01*
X397143Y280886D01*
X397090Y280991D01*
X397085Y280996D01*
X397082Y281001D01*
X396998Y281081D01*
X396914Y281164D01*
X396908Y281167D01*
X396904Y281171D01*
X396887Y281179D01*
X396767Y281245D01*
X396169Y281492D01*
X394242Y283419D01*
X393199Y285937D01*
X393199Y298263D01*
X394242Y300781D01*
X396169Y302708D01*
X398687Y303751D01*
X401413Y303751D01*
X403931Y302708D01*
X405858Y300781D01*
X406901Y298263D01*
X406901Y285937D01*
X405858Y283419D01*
X403931Y281492D01*
X403333Y281245D01*
X403233Y281183D01*
X403133Y281123D01*
X403129Y281118D01*
X403124Y281115D01*
X403049Y281024D01*
X402973Y280936D01*
X402971Y280930D01*
X402967Y280925D01*
X402925Y280817D01*
X402881Y280708D01*
X402880Y280700D01*
X402879Y280696D01*
X402878Y280678D01*
X402863Y280541D01*
X402863Y275060D01*
X394865Y267062D01*
X62536Y267062D01*
X62421Y267043D01*
X62305Y267026D01*
X62299Y267024D01*
X62293Y267023D01*
X62190Y266968D01*
X62085Y266915D01*
X62081Y266910D01*
X62075Y266907D01*
X61996Y266823D01*
X61913Y266739D01*
X61910Y266733D01*
X61906Y266729D01*
X61898Y266712D01*
X61832Y266592D01*
X60506Y263390D01*
X57285Y260169D01*
X53077Y258426D01*
X48523Y258426D01*
G37*
%LPD*%
%LPC*%
G36*
X297087Y280449D02*
X297087Y280449D01*
X294569Y281492D01*
X292642Y283419D01*
X291599Y285937D01*
X291599Y298263D01*
X292642Y300781D01*
X294569Y302708D01*
X295167Y302955D01*
X295267Y303017D01*
X295367Y303077D01*
X295371Y303082D01*
X295376Y303085D01*
X295451Y303175D01*
X295527Y303264D01*
X295529Y303270D01*
X295533Y303275D01*
X295575Y303383D01*
X295619Y303492D01*
X295620Y303500D01*
X295621Y303504D01*
X295622Y303522D01*
X295637Y303659D01*
X295637Y402826D01*
X295634Y402846D01*
X295636Y402865D01*
X295614Y402967D01*
X295598Y403069D01*
X295588Y403086D01*
X295584Y403106D01*
X295531Y403195D01*
X295482Y403286D01*
X295468Y403300D01*
X295458Y403317D01*
X295379Y403384D01*
X295304Y403456D01*
X295286Y403464D01*
X295271Y403477D01*
X295175Y403516D01*
X295081Y403559D01*
X295061Y403561D01*
X295043Y403569D01*
X294876Y403587D01*
X62536Y403587D01*
X62421Y403568D01*
X62305Y403551D01*
X62299Y403549D01*
X62293Y403548D01*
X62190Y403493D01*
X62085Y403440D01*
X62081Y403435D01*
X62075Y403432D01*
X61996Y403348D01*
X61913Y403264D01*
X61910Y403258D01*
X61906Y403254D01*
X61898Y403237D01*
X61832Y403117D01*
X60506Y399915D01*
X57285Y396694D01*
X53077Y394951D01*
X48523Y394951D01*
X44315Y396694D01*
X41094Y399915D01*
X39351Y404123D01*
X39351Y408677D01*
X41094Y412885D01*
X44315Y416106D01*
X48523Y417849D01*
X53077Y417849D01*
X57285Y416106D01*
X60506Y412885D01*
X61832Y409683D01*
X61894Y409583D01*
X61954Y409483D01*
X61959Y409479D01*
X61962Y409474D01*
X62052Y409399D01*
X62141Y409323D01*
X62147Y409321D01*
X62151Y409317D01*
X62260Y409275D01*
X62369Y409231D01*
X62376Y409230D01*
X62381Y409229D01*
X62399Y409228D01*
X62536Y409213D01*
X299615Y409213D01*
X301263Y407565D01*
X301263Y303659D01*
X301282Y303544D01*
X301299Y303428D01*
X301301Y303422D01*
X301302Y303416D01*
X301357Y303314D01*
X301410Y303209D01*
X301415Y303204D01*
X301418Y303199D01*
X301502Y303119D01*
X301586Y303036D01*
X301592Y303033D01*
X301596Y303029D01*
X301613Y303021D01*
X301733Y302955D01*
X302331Y302708D01*
X304258Y300781D01*
X305301Y298263D01*
X305301Y285937D01*
X304258Y283419D01*
X302331Y281492D01*
X299813Y280449D01*
X297087Y280449D01*
G37*
%LPD*%
%LPC*%
G36*
X271687Y280449D02*
X271687Y280449D01*
X269169Y281492D01*
X267242Y283419D01*
X266199Y285937D01*
X266199Y298263D01*
X267242Y300781D01*
X269169Y302708D01*
X269767Y302955D01*
X269867Y303017D01*
X269967Y303077D01*
X269971Y303082D01*
X269976Y303085D01*
X270051Y303175D01*
X270127Y303264D01*
X270129Y303270D01*
X270133Y303275D01*
X270175Y303383D01*
X270219Y303492D01*
X270220Y303500D01*
X270221Y303504D01*
X270222Y303522D01*
X270237Y303659D01*
X270237Y377426D01*
X270234Y377446D01*
X270236Y377465D01*
X270214Y377567D01*
X270198Y377669D01*
X270188Y377686D01*
X270184Y377706D01*
X270131Y377795D01*
X270082Y377886D01*
X270068Y377900D01*
X270058Y377917D01*
X269979Y377984D01*
X269904Y378056D01*
X269886Y378064D01*
X269871Y378077D01*
X269775Y378116D01*
X269681Y378159D01*
X269661Y378161D01*
X269643Y378169D01*
X269476Y378187D01*
X62536Y378187D01*
X62421Y378168D01*
X62305Y378151D01*
X62299Y378149D01*
X62293Y378148D01*
X62190Y378093D01*
X62085Y378040D01*
X62081Y378035D01*
X62075Y378032D01*
X61996Y377948D01*
X61913Y377864D01*
X61910Y377858D01*
X61906Y377854D01*
X61898Y377837D01*
X61832Y377717D01*
X60506Y374515D01*
X57285Y371294D01*
X53077Y369551D01*
X48523Y369551D01*
X44315Y371294D01*
X41094Y374515D01*
X39351Y378723D01*
X39351Y383277D01*
X41094Y387485D01*
X44315Y390706D01*
X48523Y392449D01*
X53077Y392449D01*
X57285Y390706D01*
X60506Y387485D01*
X61832Y384283D01*
X61894Y384183D01*
X61954Y384083D01*
X61959Y384079D01*
X61962Y384074D01*
X62052Y383999D01*
X62141Y383923D01*
X62147Y383921D01*
X62151Y383917D01*
X62260Y383875D01*
X62369Y383831D01*
X62376Y383830D01*
X62381Y383829D01*
X62399Y383828D01*
X62536Y383813D01*
X274215Y383813D01*
X275863Y382165D01*
X275863Y303659D01*
X275882Y303544D01*
X275899Y303428D01*
X275901Y303422D01*
X275902Y303416D01*
X275957Y303314D01*
X276010Y303209D01*
X276015Y303204D01*
X276018Y303199D01*
X276102Y303119D01*
X276186Y303036D01*
X276192Y303033D01*
X276196Y303029D01*
X276213Y303021D01*
X276333Y302955D01*
X276931Y302708D01*
X278858Y300781D01*
X279901Y298263D01*
X279901Y285937D01*
X278858Y283419D01*
X276931Y281492D01*
X274413Y280449D01*
X271687Y280449D01*
G37*
%LPD*%
%LPC*%
G36*
X457661Y123552D02*
X457661Y123552D01*
X455226Y124561D01*
X453364Y126423D01*
X452355Y128858D01*
X452355Y131492D01*
X453364Y133927D01*
X455193Y135756D01*
X455248Y135832D01*
X455308Y135904D01*
X455319Y135932D01*
X455336Y135955D01*
X455364Y136046D01*
X455399Y136133D01*
X455400Y136162D01*
X455409Y136190D01*
X455406Y136285D01*
X455411Y136379D01*
X455403Y136407D01*
X455402Y136436D01*
X455370Y136525D01*
X455344Y136616D01*
X455328Y136640D01*
X455318Y136667D01*
X455259Y136741D01*
X455206Y136819D01*
X455178Y136843D01*
X455164Y136859D01*
X455137Y136877D01*
X455077Y136927D01*
X454444Y137350D01*
X453453Y138341D01*
X452675Y139506D01*
X452139Y140800D01*
X452029Y141352D01*
X462788Y141352D01*
X462808Y141355D01*
X462827Y141353D01*
X462929Y141375D01*
X463031Y141392D01*
X463048Y141401D01*
X463068Y141405D01*
X463157Y141458D01*
X463248Y141507D01*
X463262Y141521D01*
X463279Y141531D01*
X463346Y141610D01*
X463417Y141685D01*
X463426Y141703D01*
X463439Y141718D01*
X463477Y141814D01*
X463521Y141908D01*
X463523Y141928D01*
X463531Y141946D01*
X463549Y142113D01*
X463549Y143637D01*
X463546Y143657D01*
X463548Y143676D01*
X463526Y143778D01*
X463509Y143880D01*
X463500Y143897D01*
X463496Y143917D01*
X463443Y144006D01*
X463394Y144097D01*
X463380Y144111D01*
X463370Y144128D01*
X463291Y144195D01*
X463216Y144266D01*
X463198Y144275D01*
X463183Y144288D01*
X463087Y144327D01*
X462993Y144370D01*
X462973Y144372D01*
X462955Y144380D01*
X462788Y144398D01*
X452029Y144398D01*
X452139Y144950D01*
X452675Y146244D01*
X453453Y147409D01*
X454444Y148400D01*
X455077Y148823D01*
X455146Y148887D01*
X455220Y148946D01*
X455236Y148971D01*
X455257Y148991D01*
X455302Y149074D01*
X455353Y149153D01*
X455360Y149182D01*
X455374Y149207D01*
X455390Y149300D01*
X455413Y149392D01*
X455411Y149421D01*
X455416Y149450D01*
X455401Y149543D01*
X455394Y149637D01*
X455382Y149664D01*
X455378Y149693D01*
X455334Y149777D01*
X455298Y149863D01*
X455275Y149892D01*
X455265Y149911D01*
X455241Y149934D01*
X455209Y149975D01*
X455208Y149975D01*
X455193Y149994D01*
X453364Y151823D01*
X452355Y154258D01*
X452355Y156892D01*
X453364Y159327D01*
X455226Y161189D01*
X455304Y161222D01*
X455365Y161259D01*
X455431Y161289D01*
X455469Y161324D01*
X455513Y161351D01*
X455559Y161407D01*
X455612Y161455D01*
X455637Y161501D01*
X455670Y161541D01*
X455696Y161608D01*
X455730Y161671D01*
X455740Y161722D01*
X455758Y161770D01*
X455761Y161842D01*
X455774Y161913D01*
X455767Y161964D01*
X455769Y162016D01*
X455749Y162085D01*
X455738Y162156D01*
X455715Y162202D01*
X455700Y162252D01*
X455659Y162311D01*
X455627Y162375D01*
X455590Y162412D01*
X455560Y162454D01*
X455502Y162497D01*
X455451Y162547D01*
X455389Y162582D01*
X455363Y162601D01*
X455340Y162608D01*
X455304Y162628D01*
X455226Y162661D01*
X453364Y164523D01*
X452355Y166958D01*
X452355Y169592D01*
X453364Y172027D01*
X455226Y173889D01*
X457661Y174898D01*
X469439Y174898D01*
X471874Y173889D01*
X473736Y172027D01*
X474745Y169592D01*
X474745Y166958D01*
X473736Y164523D01*
X471874Y162661D01*
X471796Y162628D01*
X471735Y162590D01*
X471669Y162561D01*
X471631Y162526D01*
X471587Y162499D01*
X471541Y162443D01*
X471488Y162395D01*
X471463Y162349D01*
X471430Y162309D01*
X471404Y162242D01*
X471369Y162179D01*
X471360Y162128D01*
X471342Y162080D01*
X471339Y162008D01*
X471326Y161937D01*
X471333Y161886D01*
X471331Y161834D01*
X471351Y161765D01*
X471362Y161694D01*
X471385Y161648D01*
X471400Y161598D01*
X471441Y161539D01*
X471473Y161475D01*
X471510Y161438D01*
X471540Y161396D01*
X471597Y161353D01*
X471649Y161303D01*
X471712Y161268D01*
X471737Y161249D01*
X471760Y161242D01*
X471796Y161222D01*
X471874Y161189D01*
X473736Y159327D01*
X474745Y156892D01*
X474745Y154258D01*
X473736Y151823D01*
X471907Y149994D01*
X471861Y149930D01*
X471844Y149912D01*
X471839Y149903D01*
X471792Y149846D01*
X471781Y149818D01*
X471764Y149795D01*
X471736Y149704D01*
X471701Y149617D01*
X471700Y149588D01*
X471691Y149560D01*
X471694Y149465D01*
X471689Y149371D01*
X471697Y149343D01*
X471698Y149314D01*
X471730Y149225D01*
X471756Y149134D01*
X471772Y149110D01*
X471782Y149083D01*
X471841Y149009D01*
X471894Y148931D01*
X471922Y148907D01*
X471936Y148891D01*
X471963Y148873D01*
X472023Y148823D01*
X472656Y148400D01*
X473647Y147409D01*
X474425Y146244D01*
X474961Y144950D01*
X475071Y144398D01*
X464312Y144398D01*
X464292Y144395D01*
X464273Y144397D01*
X464171Y144375D01*
X464069Y144358D01*
X464052Y144349D01*
X464032Y144345D01*
X463943Y144292D01*
X463852Y144243D01*
X463838Y144229D01*
X463821Y144219D01*
X463754Y144140D01*
X463683Y144065D01*
X463674Y144047D01*
X463661Y144032D01*
X463623Y143936D01*
X463579Y143842D01*
X463577Y143822D01*
X463569Y143804D01*
X463551Y143637D01*
X463551Y142113D01*
X463554Y142093D01*
X463552Y142074D01*
X463574Y141972D01*
X463591Y141870D01*
X463600Y141853D01*
X463604Y141833D01*
X463657Y141744D01*
X463706Y141653D01*
X463720Y141639D01*
X463730Y141622D01*
X463809Y141555D01*
X463884Y141484D01*
X463902Y141475D01*
X463917Y141462D01*
X464013Y141423D01*
X464107Y141380D01*
X464127Y141378D01*
X464145Y141370D01*
X464312Y141352D01*
X475071Y141352D01*
X474961Y140800D01*
X474425Y139506D01*
X473647Y138341D01*
X472656Y137350D01*
X472023Y136927D01*
X471954Y136863D01*
X471880Y136804D01*
X471864Y136779D01*
X471843Y136759D01*
X471798Y136676D01*
X471747Y136597D01*
X471740Y136568D01*
X471726Y136543D01*
X471710Y136450D01*
X471687Y136358D01*
X471689Y136329D01*
X471684Y136300D01*
X471699Y136207D01*
X471706Y136113D01*
X471718Y136086D01*
X471722Y136057D01*
X471766Y135973D01*
X471802Y135887D01*
X471825Y135858D01*
X471835Y135839D01*
X471859Y135816D01*
X471907Y135756D01*
X473736Y133927D01*
X474745Y131492D01*
X474745Y128858D01*
X473736Y126423D01*
X471874Y124561D01*
X469439Y123552D01*
X457661Y123552D01*
G37*
%LPD*%
%LPC*%
G36*
X48523Y80626D02*
X48523Y80626D01*
X44315Y82369D01*
X41094Y85590D01*
X39351Y89798D01*
X39351Y94352D01*
X41094Y98560D01*
X44315Y101781D01*
X48523Y103524D01*
X53077Y103524D01*
X57285Y101781D01*
X60506Y98560D01*
X62249Y94352D01*
X62249Y89798D01*
X60506Y85590D01*
X57285Y82369D01*
X53077Y80626D01*
X48523Y80626D01*
G37*
%LPD*%
%LPC*%
G36*
X48523Y191751D02*
X48523Y191751D01*
X44315Y193494D01*
X41094Y196715D01*
X39351Y200923D01*
X39351Y205477D01*
X41094Y209685D01*
X44315Y212906D01*
X48523Y214649D01*
X53077Y214649D01*
X57285Y212906D01*
X60506Y209685D01*
X62249Y205477D01*
X62249Y200923D01*
X60506Y196715D01*
X57285Y193494D01*
X53077Y191751D01*
X48523Y191751D01*
G37*
%LPD*%
%LPC*%
G36*
X343798Y182226D02*
X343798Y182226D01*
X339590Y183969D01*
X336369Y187190D01*
X334626Y191398D01*
X334626Y195952D01*
X336369Y200160D01*
X339590Y203381D01*
X343798Y205124D01*
X348352Y205124D01*
X352560Y203381D01*
X355781Y200160D01*
X357524Y195952D01*
X357524Y191398D01*
X355781Y187190D01*
X352560Y183969D01*
X348352Y182226D01*
X343798Y182226D01*
G37*
%LPD*%
%LPC*%
G36*
X305698Y182226D02*
X305698Y182226D01*
X301490Y183969D01*
X298269Y187190D01*
X296526Y191398D01*
X296526Y195952D01*
X298269Y200160D01*
X301490Y203381D01*
X305698Y205124D01*
X310252Y205124D01*
X314460Y203381D01*
X317681Y200160D01*
X319424Y195952D01*
X319424Y191398D01*
X317681Y187190D01*
X314460Y183969D01*
X310252Y182226D01*
X305698Y182226D01*
G37*
%LPD*%
%LPC*%
G36*
X48523Y309226D02*
X48523Y309226D01*
X44315Y310969D01*
X41094Y314190D01*
X39351Y318398D01*
X39351Y322952D01*
X41094Y327160D01*
X44315Y330381D01*
X48523Y332124D01*
X53077Y332124D01*
X57285Y330381D01*
X60506Y327160D01*
X62249Y322952D01*
X62249Y318398D01*
X60506Y314190D01*
X57285Y310969D01*
X53077Y309226D01*
X48523Y309226D01*
G37*
%LPD*%
%LPC*%
G36*
X48523Y344151D02*
X48523Y344151D01*
X44315Y345894D01*
X41094Y349115D01*
X39351Y353323D01*
X39351Y357877D01*
X41094Y362085D01*
X44315Y365306D01*
X48523Y367049D01*
X53077Y367049D01*
X57285Y365306D01*
X60506Y362085D01*
X62249Y357877D01*
X62249Y353323D01*
X60506Y349115D01*
X57285Y345894D01*
X53077Y344151D01*
X48523Y344151D01*
G37*
%LPD*%
%LPC*%
G36*
X267598Y182226D02*
X267598Y182226D01*
X263390Y183969D01*
X260169Y187190D01*
X258426Y191398D01*
X258426Y195952D01*
X260169Y200160D01*
X263390Y203381D01*
X267598Y205124D01*
X272152Y205124D01*
X276360Y203381D01*
X279581Y200160D01*
X281324Y195952D01*
X281324Y191398D01*
X279581Y187190D01*
X276360Y183969D01*
X272152Y182226D01*
X267598Y182226D01*
G37*
%LPD*%
%LPC*%
G36*
X48523Y131426D02*
X48523Y131426D01*
X44315Y133169D01*
X41094Y136390D01*
X39351Y140598D01*
X39351Y145152D01*
X41094Y149360D01*
X44315Y152581D01*
X48523Y154324D01*
X53077Y154324D01*
X57285Y152581D01*
X60506Y149360D01*
X62249Y145152D01*
X62249Y140598D01*
X60506Y136390D01*
X57285Y133169D01*
X53077Y131426D01*
X48523Y131426D01*
G37*
%LPD*%
%LPC*%
G36*
X343798Y106026D02*
X343798Y106026D01*
X339590Y107769D01*
X336369Y110990D01*
X334626Y115198D01*
X334626Y119752D01*
X336369Y123960D01*
X339590Y127181D01*
X343798Y128924D01*
X348352Y128924D01*
X352560Y127181D01*
X355781Y123960D01*
X357524Y119752D01*
X357524Y115198D01*
X355781Y110990D01*
X352560Y107769D01*
X348352Y106026D01*
X343798Y106026D01*
G37*
%LPD*%
%LPC*%
G36*
X305698Y106026D02*
X305698Y106026D01*
X301490Y107769D01*
X298269Y110990D01*
X296526Y115198D01*
X296526Y119752D01*
X298269Y123960D01*
X301490Y127181D01*
X305698Y128924D01*
X310252Y128924D01*
X314460Y127181D01*
X317681Y123960D01*
X319424Y119752D01*
X319424Y115198D01*
X317681Y110990D01*
X314460Y107769D01*
X310252Y106026D01*
X305698Y106026D01*
G37*
%LPD*%
%LPC*%
G36*
X267598Y106026D02*
X267598Y106026D01*
X263390Y107769D01*
X260169Y110990D01*
X258426Y115198D01*
X258426Y119752D01*
X260169Y123960D01*
X263390Y127181D01*
X267598Y128924D01*
X272152Y128924D01*
X276360Y127181D01*
X279581Y123960D01*
X281324Y119752D01*
X281324Y115198D01*
X279581Y110990D01*
X276360Y107769D01*
X272152Y106026D01*
X267598Y106026D01*
G37*
%LPD*%
%LPC*%
G36*
X170087Y432849D02*
X170087Y432849D01*
X167569Y433892D01*
X165642Y435819D01*
X164599Y438337D01*
X164599Y450663D01*
X165642Y453181D01*
X167569Y455108D01*
X170087Y456151D01*
X172813Y456151D01*
X175331Y455108D01*
X177258Y453181D01*
X178301Y450663D01*
X178301Y438337D01*
X177258Y435819D01*
X175331Y433892D01*
X172813Y432849D01*
X170087Y432849D01*
G37*
%LPD*%
%LPC*%
G36*
X500287Y280449D02*
X500287Y280449D01*
X497769Y281492D01*
X495842Y283419D01*
X494799Y285937D01*
X494799Y298263D01*
X495842Y300781D01*
X497769Y302708D01*
X500287Y303751D01*
X503013Y303751D01*
X505531Y302708D01*
X507458Y300781D01*
X508501Y298263D01*
X508501Y285937D01*
X507458Y283419D01*
X505531Y281492D01*
X503013Y280449D01*
X500287Y280449D01*
G37*
%LPD*%
%LPC*%
G36*
X246287Y432849D02*
X246287Y432849D01*
X243769Y433892D01*
X241842Y435819D01*
X240799Y438337D01*
X240799Y450663D01*
X241842Y453181D01*
X243769Y455108D01*
X246287Y456151D01*
X249013Y456151D01*
X251531Y455108D01*
X253458Y453181D01*
X254501Y450663D01*
X254501Y438337D01*
X253458Y435819D01*
X251531Y433892D01*
X249013Y432849D01*
X246287Y432849D01*
G37*
%LPD*%
%LPC*%
G36*
X449487Y432849D02*
X449487Y432849D01*
X446969Y433892D01*
X445042Y435819D01*
X443999Y438337D01*
X443999Y450663D01*
X445042Y453181D01*
X446969Y455108D01*
X449487Y456151D01*
X452213Y456151D01*
X454731Y455108D01*
X456658Y453181D01*
X457701Y450663D01*
X457701Y438337D01*
X456658Y435819D01*
X454731Y433892D01*
X452213Y432849D01*
X449487Y432849D01*
G37*
%LPD*%
%LPC*%
G36*
X271687Y432849D02*
X271687Y432849D01*
X269169Y433892D01*
X267242Y435819D01*
X266199Y438337D01*
X266199Y450663D01*
X267242Y453181D01*
X269169Y455108D01*
X271687Y456151D01*
X274413Y456151D01*
X276931Y455108D01*
X278858Y453181D01*
X279901Y450663D01*
X279901Y438337D01*
X278858Y435819D01*
X276931Y433892D01*
X274413Y432849D01*
X271687Y432849D01*
G37*
%LPD*%
%LPC*%
G36*
X449487Y280449D02*
X449487Y280449D01*
X446969Y281492D01*
X445042Y283419D01*
X443999Y285937D01*
X443999Y298263D01*
X445042Y300781D01*
X446969Y302708D01*
X449487Y303751D01*
X452213Y303751D01*
X454731Y302708D01*
X456658Y300781D01*
X457701Y298263D01*
X457701Y285937D01*
X456658Y283419D01*
X454731Y281492D01*
X452213Y280449D01*
X449487Y280449D01*
G37*
%LPD*%
%LPC*%
G36*
X297087Y432849D02*
X297087Y432849D01*
X294569Y433892D01*
X292642Y435819D01*
X291599Y438337D01*
X291599Y450663D01*
X292642Y453181D01*
X294569Y455108D01*
X297087Y456151D01*
X299813Y456151D01*
X302331Y455108D01*
X304258Y453181D01*
X305301Y450663D01*
X305301Y438337D01*
X304258Y435819D01*
X302331Y433892D01*
X299813Y432849D01*
X297087Y432849D01*
G37*
%LPD*%
%LPC*%
G36*
X322487Y432849D02*
X322487Y432849D01*
X319969Y433892D01*
X318042Y435819D01*
X316999Y438337D01*
X316999Y450663D01*
X318042Y453181D01*
X319969Y455108D01*
X322487Y456151D01*
X325213Y456151D01*
X327731Y455108D01*
X329658Y453181D01*
X330701Y450663D01*
X330701Y438337D01*
X329658Y435819D01*
X327731Y433892D01*
X325213Y432849D01*
X322487Y432849D01*
G37*
%LPD*%
%LPC*%
G36*
X525687Y280449D02*
X525687Y280449D01*
X523169Y281492D01*
X521242Y283419D01*
X520199Y285937D01*
X520199Y298263D01*
X521242Y300781D01*
X523169Y302708D01*
X525687Y303751D01*
X528413Y303751D01*
X530931Y302708D01*
X532858Y300781D01*
X533901Y298263D01*
X533901Y285937D01*
X532858Y283419D01*
X530931Y281492D01*
X528413Y280449D01*
X525687Y280449D01*
G37*
%LPD*%
%LPC*%
G36*
X246287Y280449D02*
X246287Y280449D01*
X243769Y281492D01*
X241842Y283419D01*
X240799Y285937D01*
X240799Y298263D01*
X241842Y300781D01*
X243769Y302708D01*
X246287Y303751D01*
X249013Y303751D01*
X251531Y302708D01*
X253458Y300781D01*
X254501Y298263D01*
X254501Y285937D01*
X253458Y283419D01*
X251531Y281492D01*
X249013Y280449D01*
X246287Y280449D01*
G37*
%LPD*%
%LPC*%
G36*
X398687Y432849D02*
X398687Y432849D01*
X396169Y433892D01*
X394242Y435819D01*
X393199Y438337D01*
X393199Y450663D01*
X394242Y453181D01*
X396169Y455108D01*
X398687Y456151D01*
X401413Y456151D01*
X403931Y455108D01*
X405858Y453181D01*
X406901Y450663D01*
X406901Y438337D01*
X405858Y435819D01*
X403931Y433892D01*
X401413Y432849D01*
X398687Y432849D01*
G37*
%LPD*%
%LPC*%
G36*
X220887Y280449D02*
X220887Y280449D01*
X218369Y281492D01*
X216442Y283419D01*
X215399Y285937D01*
X215399Y298263D01*
X216442Y300781D01*
X218369Y302708D01*
X220887Y303751D01*
X223613Y303751D01*
X226131Y302708D01*
X228058Y300781D01*
X229101Y298263D01*
X229101Y285937D01*
X228058Y283419D01*
X226131Y281492D01*
X223613Y280449D01*
X220887Y280449D01*
G37*
%LPD*%
%LPC*%
G36*
X474887Y432849D02*
X474887Y432849D01*
X472369Y433892D01*
X470442Y435819D01*
X469399Y438337D01*
X469399Y450663D01*
X470442Y453181D01*
X472369Y455108D01*
X474887Y456151D01*
X477613Y456151D01*
X480131Y455108D01*
X482058Y453181D01*
X483101Y450663D01*
X483101Y438337D01*
X482058Y435819D01*
X480131Y433892D01*
X477613Y432849D01*
X474887Y432849D01*
G37*
%LPD*%
%LPC*%
G36*
X220887Y432849D02*
X220887Y432849D01*
X218369Y433892D01*
X216442Y435819D01*
X215399Y438337D01*
X215399Y450663D01*
X216442Y453181D01*
X218369Y455108D01*
X220887Y456151D01*
X223613Y456151D01*
X226131Y455108D01*
X228058Y453181D01*
X229101Y450663D01*
X229101Y438337D01*
X228058Y435819D01*
X226131Y433892D01*
X223613Y432849D01*
X220887Y432849D01*
G37*
%LPD*%
%LPC*%
G36*
X195487Y280449D02*
X195487Y280449D01*
X192969Y281492D01*
X191042Y283419D01*
X189999Y285937D01*
X189999Y298263D01*
X191042Y300781D01*
X192969Y302708D01*
X195487Y303751D01*
X198213Y303751D01*
X200731Y302708D01*
X202658Y300781D01*
X203701Y298263D01*
X203701Y285937D01*
X202658Y283419D01*
X200731Y281492D01*
X198213Y280449D01*
X195487Y280449D01*
G37*
%LPD*%
%LPC*%
G36*
X170087Y280449D02*
X170087Y280449D01*
X167569Y281492D01*
X165642Y283419D01*
X164599Y285937D01*
X164599Y298263D01*
X165642Y300781D01*
X167569Y302708D01*
X170087Y303751D01*
X172813Y303751D01*
X175331Y302708D01*
X177258Y300781D01*
X178301Y298263D01*
X178301Y285937D01*
X177258Y283419D01*
X175331Y281492D01*
X172813Y280449D01*
X170087Y280449D01*
G37*
%LPD*%
%LPC*%
G36*
X525687Y432849D02*
X525687Y432849D01*
X523169Y433892D01*
X521242Y435819D01*
X520199Y438337D01*
X520199Y450663D01*
X521242Y453181D01*
X523169Y455108D01*
X525687Y456151D01*
X528413Y456151D01*
X530931Y455108D01*
X532858Y453181D01*
X533901Y450663D01*
X533901Y438337D01*
X532858Y435819D01*
X530931Y433892D01*
X528413Y432849D01*
X525687Y432849D01*
G37*
%LPD*%
%LPC*%
G36*
X424087Y280449D02*
X424087Y280449D01*
X421569Y281492D01*
X419642Y283419D01*
X418599Y285937D01*
X418599Y298263D01*
X419642Y300781D01*
X421569Y302708D01*
X424087Y303751D01*
X426813Y303751D01*
X429331Y302708D01*
X431258Y300781D01*
X432301Y298263D01*
X432301Y285937D01*
X431258Y283419D01*
X429331Y281492D01*
X426813Y280449D01*
X424087Y280449D01*
G37*
%LPD*%
%LPC*%
G36*
X500287Y432849D02*
X500287Y432849D01*
X497769Y433892D01*
X495842Y435819D01*
X494799Y438337D01*
X494799Y450663D01*
X495842Y453181D01*
X497769Y455108D01*
X500287Y456151D01*
X503013Y456151D01*
X505531Y455108D01*
X507458Y453181D01*
X508501Y450663D01*
X508501Y438337D01*
X507458Y435819D01*
X505531Y433892D01*
X503013Y432849D01*
X500287Y432849D01*
G37*
%LPD*%
%LPC*%
G36*
X474887Y280449D02*
X474887Y280449D01*
X472369Y281492D01*
X470442Y283419D01*
X469399Y285937D01*
X469399Y298263D01*
X470442Y300781D01*
X472369Y302708D01*
X474887Y303751D01*
X477613Y303751D01*
X480131Y302708D01*
X482058Y300781D01*
X483101Y298263D01*
X483101Y285937D01*
X482058Y283419D01*
X480131Y281492D01*
X477613Y280449D01*
X474887Y280449D01*
G37*
%LPD*%
%LPC*%
G36*
X347887Y280449D02*
X347887Y280449D01*
X345369Y281492D01*
X343442Y283419D01*
X342399Y285937D01*
X342399Y298263D01*
X343442Y300781D01*
X345369Y302708D01*
X347887Y303751D01*
X350613Y303751D01*
X353131Y302708D01*
X355058Y300781D01*
X356101Y298263D01*
X356101Y285937D01*
X355058Y283419D01*
X353131Y281492D01*
X350613Y280449D01*
X347887Y280449D01*
G37*
%LPD*%
%LPC*%
G36*
X322487Y280449D02*
X322487Y280449D01*
X319969Y281492D01*
X318042Y283419D01*
X316999Y285937D01*
X316999Y298263D01*
X318042Y300781D01*
X319969Y302708D01*
X322487Y303751D01*
X325213Y303751D01*
X327731Y302708D01*
X329658Y300781D01*
X330701Y298263D01*
X330701Y285937D01*
X329658Y283419D01*
X327731Y281492D01*
X325213Y280449D01*
X322487Y280449D01*
G37*
%LPD*%
%LPC*%
G36*
X424087Y432849D02*
X424087Y432849D01*
X421569Y433892D01*
X419642Y435819D01*
X418599Y438337D01*
X418599Y450663D01*
X419642Y453181D01*
X421569Y455108D01*
X424087Y456151D01*
X426813Y456151D01*
X429331Y455108D01*
X431258Y453181D01*
X432301Y450663D01*
X432301Y438337D01*
X431258Y435819D01*
X429331Y433892D01*
X426813Y432849D01*
X424087Y432849D01*
G37*
%LPD*%
%LPC*%
G36*
X373287Y280449D02*
X373287Y280449D01*
X370769Y281492D01*
X368842Y283419D01*
X367799Y285937D01*
X367799Y298263D01*
X368842Y300781D01*
X370769Y302708D01*
X373287Y303751D01*
X376013Y303751D01*
X378531Y302708D01*
X380458Y300781D01*
X381501Y298263D01*
X381501Y285937D01*
X380458Y283419D01*
X378531Y281492D01*
X376013Y280449D01*
X373287Y280449D01*
G37*
%LPD*%
%LPC*%
G36*
X157387Y361449D02*
X157387Y361449D01*
X154869Y362492D01*
X152942Y364419D01*
X151899Y366937D01*
X151899Y369663D01*
X152942Y372181D01*
X154869Y374108D01*
X157387Y375151D01*
X160113Y375151D01*
X162631Y374108D01*
X164558Y372181D01*
X165601Y369663D01*
X165601Y366937D01*
X164558Y364419D01*
X162631Y362492D01*
X160113Y361449D01*
X157387Y361449D01*
G37*
%LPD*%
%LPC*%
G36*
X182787Y336049D02*
X182787Y336049D01*
X180269Y337092D01*
X178342Y339019D01*
X177299Y341537D01*
X177299Y344263D01*
X178342Y346781D01*
X180269Y348708D01*
X182787Y349751D01*
X185513Y349751D01*
X188031Y348708D01*
X189958Y346781D01*
X191001Y344263D01*
X191001Y341537D01*
X189958Y339019D01*
X188031Y337092D01*
X185513Y336049D01*
X182787Y336049D01*
G37*
%LPD*%
%LPC*%
G36*
X182787Y361449D02*
X182787Y361449D01*
X180269Y362492D01*
X178342Y364419D01*
X177299Y366937D01*
X177299Y369663D01*
X178342Y372181D01*
X180269Y374108D01*
X182787Y375151D01*
X185513Y375151D01*
X188031Y374108D01*
X189958Y372181D01*
X191001Y369663D01*
X191001Y366937D01*
X189958Y364419D01*
X188031Y362492D01*
X185513Y361449D01*
X182787Y361449D01*
G37*
%LPD*%
%LPC*%
G36*
X157387Y386849D02*
X157387Y386849D01*
X154869Y387892D01*
X152942Y389819D01*
X151899Y392337D01*
X151899Y395063D01*
X152942Y397581D01*
X154869Y399508D01*
X157387Y400551D01*
X160113Y400551D01*
X162631Y399508D01*
X164558Y397581D01*
X165601Y395063D01*
X165601Y392337D01*
X164558Y389819D01*
X162631Y387892D01*
X160113Y386849D01*
X157387Y386849D01*
G37*
%LPD*%
%LPC*%
G36*
X182787Y386849D02*
X182787Y386849D01*
X180269Y387892D01*
X178342Y389819D01*
X177299Y392337D01*
X177299Y395063D01*
X178342Y397581D01*
X180269Y399508D01*
X182787Y400551D01*
X185513Y400551D01*
X188031Y399508D01*
X189958Y397581D01*
X191001Y395063D01*
X191001Y392337D01*
X189958Y389819D01*
X188031Y387892D01*
X185513Y386849D01*
X182787Y386849D01*
G37*
%LPD*%
%LPC*%
G36*
X157387Y336049D02*
X157387Y336049D01*
X154869Y337092D01*
X152942Y339019D01*
X151899Y341537D01*
X151899Y344263D01*
X152942Y346781D01*
X154869Y348708D01*
X157387Y349751D01*
X160113Y349751D01*
X162631Y348708D01*
X164558Y346781D01*
X165601Y344263D01*
X165601Y341537D01*
X164558Y339019D01*
X162631Y337092D01*
X160113Y336049D01*
X157387Y336049D01*
G37*
%LPD*%
%LPC*%
G36*
X52323Y433323D02*
X52323Y433323D01*
X52323Y443646D01*
X53596Y443445D01*
X55383Y442864D01*
X57057Y442011D01*
X58578Y440906D01*
X59906Y439578D01*
X61011Y438057D01*
X61864Y436383D01*
X62445Y434596D01*
X62646Y433323D01*
X52323Y433323D01*
G37*
%LPD*%
%LPC*%
G36*
X52323Y179323D02*
X52323Y179323D01*
X52323Y189646D01*
X53596Y189445D01*
X55383Y188864D01*
X57057Y188011D01*
X58578Y186906D01*
X59906Y185578D01*
X61011Y184057D01*
X61864Y182383D01*
X62445Y180596D01*
X62646Y179323D01*
X52323Y179323D01*
G37*
%LPD*%
%LPC*%
G36*
X52323Y118998D02*
X52323Y118998D01*
X52323Y129321D01*
X53596Y129120D01*
X55383Y128539D01*
X57057Y127686D01*
X58578Y126581D01*
X59906Y125253D01*
X61011Y123732D01*
X61864Y122058D01*
X62445Y120271D01*
X62646Y118998D01*
X52323Y118998D01*
G37*
%LPD*%
%LPC*%
G36*
X52323Y296798D02*
X52323Y296798D01*
X52323Y307121D01*
X53596Y306920D01*
X55383Y306339D01*
X57057Y305486D01*
X58578Y304381D01*
X59906Y303053D01*
X61011Y301532D01*
X61864Y299858D01*
X62445Y298071D01*
X62646Y296798D01*
X52323Y296798D01*
G37*
%LPD*%
%LPC*%
G36*
X38954Y296798D02*
X38954Y296798D01*
X39155Y298071D01*
X39736Y299858D01*
X40589Y301532D01*
X41694Y303053D01*
X43022Y304381D01*
X44543Y305486D01*
X46217Y306339D01*
X48004Y306920D01*
X49277Y307121D01*
X49277Y296798D01*
X38954Y296798D01*
G37*
%LPD*%
%LPC*%
G36*
X52323Y293752D02*
X52323Y293752D01*
X62646Y293752D01*
X62445Y292479D01*
X61864Y290692D01*
X61011Y289018D01*
X59906Y287497D01*
X58578Y286169D01*
X57057Y285064D01*
X55383Y284211D01*
X53596Y283630D01*
X52323Y283429D01*
X52323Y293752D01*
G37*
%LPD*%
%LPC*%
G36*
X38954Y118998D02*
X38954Y118998D01*
X39155Y120271D01*
X39736Y122058D01*
X40589Y123732D01*
X41694Y125253D01*
X43022Y126581D01*
X44543Y127686D01*
X46217Y128539D01*
X48004Y129120D01*
X49277Y129321D01*
X49277Y118998D01*
X38954Y118998D01*
G37*
%LPD*%
%LPC*%
G36*
X38954Y433323D02*
X38954Y433323D01*
X39155Y434596D01*
X39736Y436383D01*
X40589Y438057D01*
X41694Y439578D01*
X43022Y440906D01*
X44543Y442011D01*
X46217Y442864D01*
X48004Y443445D01*
X49277Y443646D01*
X49277Y433323D01*
X38954Y433323D01*
G37*
%LPD*%
%LPC*%
G36*
X52323Y176277D02*
X52323Y176277D01*
X62646Y176277D01*
X62445Y175004D01*
X61864Y173217D01*
X61011Y171543D01*
X59906Y170022D01*
X58578Y168694D01*
X57057Y167589D01*
X55383Y166736D01*
X53596Y166155D01*
X52323Y165954D01*
X52323Y176277D01*
G37*
%LPD*%
%LPC*%
G36*
X52323Y430277D02*
X52323Y430277D01*
X62646Y430277D01*
X62445Y429004D01*
X61864Y427217D01*
X61011Y425543D01*
X59906Y424022D01*
X58578Y422694D01*
X57057Y421589D01*
X55383Y420736D01*
X53596Y420155D01*
X52323Y419954D01*
X52323Y430277D01*
G37*
%LPD*%
%LPC*%
G36*
X38954Y179323D02*
X38954Y179323D01*
X39155Y180596D01*
X39736Y182383D01*
X40589Y184057D01*
X41694Y185578D01*
X43022Y186906D01*
X44543Y188011D01*
X46217Y188864D01*
X48004Y189445D01*
X49277Y189646D01*
X49277Y179323D01*
X38954Y179323D01*
G37*
%LPD*%
%LPC*%
G36*
X52323Y115952D02*
X52323Y115952D01*
X62646Y115952D01*
X62445Y114679D01*
X61864Y112892D01*
X61011Y111218D01*
X59906Y109697D01*
X58578Y108369D01*
X57057Y107264D01*
X55383Y106411D01*
X53596Y105830D01*
X52323Y105629D01*
X52323Y115952D01*
G37*
%LPD*%
%LPC*%
G36*
X48004Y420155D02*
X48004Y420155D01*
X46217Y420736D01*
X44543Y421589D01*
X43022Y422694D01*
X41694Y424022D01*
X40589Y425543D01*
X39736Y427217D01*
X39155Y429004D01*
X38954Y430277D01*
X49277Y430277D01*
X49277Y419954D01*
X48004Y420155D01*
G37*
%LPD*%
%LPC*%
G36*
X48004Y166155D02*
X48004Y166155D01*
X46217Y166736D01*
X44543Y167589D01*
X43022Y168694D01*
X41694Y170022D01*
X40589Y171543D01*
X39736Y173217D01*
X39155Y175004D01*
X38954Y176277D01*
X49277Y176277D01*
X49277Y165954D01*
X48004Y166155D01*
G37*
%LPD*%
%LPC*%
G36*
X48004Y283630D02*
X48004Y283630D01*
X46217Y284211D01*
X44543Y285064D01*
X43022Y286169D01*
X41694Y287497D01*
X40589Y289018D01*
X39736Y290692D01*
X39155Y292479D01*
X38954Y293752D01*
X49277Y293752D01*
X49277Y283429D01*
X48004Y283630D01*
G37*
%LPD*%
%LPC*%
G36*
X48004Y105830D02*
X48004Y105830D01*
X46217Y106411D01*
X44543Y107264D01*
X43022Y108369D01*
X41694Y109697D01*
X40589Y111218D01*
X39736Y112892D01*
X39155Y114679D01*
X38954Y115952D01*
X49277Y115952D01*
X49277Y105629D01*
X48004Y105830D01*
G37*
%LPD*%
%LPC*%
G36*
X198373Y446023D02*
X198373Y446023D01*
X198373Y456482D01*
X198991Y456359D01*
X200327Y455805D01*
X201530Y455002D01*
X202552Y453980D01*
X203355Y452777D01*
X203909Y451441D01*
X204191Y450023D01*
X204191Y446023D01*
X198373Y446023D01*
G37*
%LPD*%
%LPC*%
G36*
X198373Y442977D02*
X198373Y442977D01*
X204191Y442977D01*
X204191Y438977D01*
X203909Y437559D01*
X203355Y436223D01*
X202552Y435020D01*
X201530Y433998D01*
X200327Y433195D01*
X198991Y432641D01*
X198373Y432518D01*
X198373Y442977D01*
G37*
%LPD*%
%LPC*%
G36*
X189509Y446023D02*
X189509Y446023D01*
X189509Y450023D01*
X189791Y451441D01*
X190345Y452777D01*
X191148Y453980D01*
X192170Y455002D01*
X193373Y455805D01*
X194709Y456359D01*
X195327Y456482D01*
X195327Y446023D01*
X189509Y446023D01*
G37*
%LPD*%
%LPC*%
G36*
X194709Y432641D02*
X194709Y432641D01*
X193373Y433195D01*
X192170Y433998D01*
X191148Y435020D01*
X190345Y436223D01*
X189791Y437559D01*
X189509Y438977D01*
X189509Y442977D01*
X195327Y442977D01*
X195327Y432518D01*
X194709Y432641D01*
G37*
%LPD*%
%LPC*%
G36*
X196849Y444499D02*
X196849Y444499D01*
X196849Y444501D01*
X196851Y444501D01*
X196851Y444499D01*
X196849Y444499D01*
G37*
%LPD*%
%LPC*%
G36*
X50799Y117474D02*
X50799Y117474D01*
X50799Y117476D01*
X50801Y117476D01*
X50801Y117474D01*
X50799Y117474D01*
G37*
%LPD*%
%LPC*%
G36*
X50799Y177799D02*
X50799Y177799D01*
X50799Y177801D01*
X50801Y177801D01*
X50801Y177799D01*
X50799Y177799D01*
G37*
%LPD*%
%LPC*%
G36*
X50799Y295274D02*
X50799Y295274D01*
X50799Y295276D01*
X50801Y295276D01*
X50801Y295274D01*
X50799Y295274D01*
G37*
%LPD*%
%LPC*%
G36*
X50799Y431799D02*
X50799Y431799D01*
X50799Y431801D01*
X50801Y431801D01*
X50801Y431799D01*
X50799Y431799D01*
G37*
%LPD*%
D10*
X458978Y142875D02*
X468122Y142875D01*
X468122Y130175D02*
X458978Y130175D01*
X458978Y155575D02*
X468122Y155575D01*
X468122Y168275D02*
X458978Y168275D01*
D11*
X50800Y355600D03*
X50800Y381000D03*
X50800Y406400D03*
X50800Y431800D03*
X50800Y66675D03*
X50800Y92075D03*
X50800Y117475D03*
X50800Y142875D03*
X307975Y193675D03*
X307975Y117475D03*
X269875Y193675D03*
X269875Y117475D03*
X346075Y193675D03*
X346075Y117475D03*
X50800Y269875D03*
X50800Y295275D03*
X50800Y320675D03*
D12*
X171450Y296900D02*
X171450Y287300D01*
X196850Y287300D02*
X196850Y296900D01*
X222250Y296900D02*
X222250Y287300D01*
X247650Y287300D02*
X247650Y296900D01*
X273050Y296900D02*
X273050Y287300D01*
X298450Y287300D02*
X298450Y296900D01*
X323850Y296900D02*
X323850Y287300D01*
X349250Y287300D02*
X349250Y296900D01*
X374650Y296900D02*
X374650Y287300D01*
X400050Y287300D02*
X400050Y296900D01*
X425450Y296900D02*
X425450Y287300D01*
X450850Y287300D02*
X450850Y296900D01*
X171450Y439700D02*
X171450Y449300D01*
X196850Y449300D02*
X196850Y439700D01*
X222250Y439700D02*
X222250Y449300D01*
X374650Y449300D02*
X374650Y439700D01*
X400050Y439700D02*
X400050Y449300D01*
X425450Y449300D02*
X425450Y439700D01*
X450850Y439700D02*
X450850Y449300D01*
X527050Y449300D02*
X527050Y439700D01*
X527050Y296900D02*
X527050Y287300D01*
X501650Y287300D02*
X501650Y296900D01*
X476250Y296900D02*
X476250Y287300D01*
X501650Y439700D02*
X501650Y449300D01*
X476250Y449300D02*
X476250Y439700D01*
X247650Y439700D02*
X247650Y449300D01*
D13*
X184150Y393700D03*
X184150Y368300D03*
X184150Y342900D03*
D12*
X349250Y439700D02*
X349250Y449300D01*
X323850Y449300D02*
X323850Y439700D01*
X298450Y439700D02*
X298450Y449300D01*
X273050Y449300D02*
X273050Y439700D01*
D13*
X158750Y393700D03*
X158750Y368300D03*
X158750Y342900D03*
D11*
X50800Y177800D03*
X50800Y203200D03*
X50800Y228600D03*
D14*
X269875Y117475D02*
X270000Y117500D01*
X393700Y269875D02*
X50800Y269875D01*
X400050Y276225D02*
X400050Y292100D01*
X400050Y276225D02*
X393700Y269875D01*
X298450Y292100D02*
X298450Y406400D01*
X50800Y406400D01*
X273050Y381000D02*
X273050Y292100D01*
X273050Y381000D02*
X50800Y381000D01*
X374650Y444500D02*
X438150Y381000D01*
X438150Y241300D01*
X434975Y238125D01*
X279400Y238125D01*
X241300Y200025D02*
X120650Y200025D01*
X101600Y180975D01*
X101600Y79375D01*
X88900Y66675D01*
X50800Y66675D01*
X241300Y200025D02*
X279400Y238125D01*
X412750Y381000D02*
X349250Y444500D01*
X412750Y381000D02*
X412750Y266700D01*
X403225Y257175D01*
X79375Y257175D02*
X50800Y228600D01*
X79375Y257175D02*
X403225Y257175D01*
M02*
