M48
;GenerationSoftware,Autodesk,EAGLE,8.7.0*%
;CreationDate,2018-03-25T19:34:28Z*%
FMAT,2
ICI,OFF
METRIC,TZ,000.000
T4C0.762
T3C0.800
T2C0.900
T1C1.016
%
G90
M71
T1
X5080Y22860
X5080Y20320
X5080Y17780
X5080Y32067
X5080Y29527
X5080Y26987
X5080Y35560
X5080Y38100
X5080Y40640
X5080Y43180
X5080Y6667
X5080Y9208
X5080Y11747
X5080Y14287
T2
X34608Y11747
X34608Y19368
X30797Y19368
X30797Y11747
X26987Y19368
X26987Y11747
T3
X3810Y46990
X42545Y44450
X55245Y46990
X55245Y3810
X3810Y3810
X17145Y29210
X19685Y29210
X22225Y29210
X24765Y29210
X27305Y29210
X29845Y29210
X32385Y29210
X15875Y34290
X37465Y29210
X40005Y29210
X42545Y29210
X45085Y29210
X17145Y44450
X19685Y44450
X22225Y44450
X37465Y44450
X40005Y44450
X34925Y29210
X45085Y44450
X52705Y44450
X52705Y29210
X50165Y29210
X47625Y29210
X50165Y44450
X47625Y44450
X24765Y44450
X18415Y39370
X18415Y36830
X18415Y34290
X34925Y44450
X32385Y44450
X29845Y44450
X27305Y44450
X15875Y39370
X15875Y36830
T4
X46355Y16828
X46355Y14287
X46355Y13017
X46355Y15557
M30