G04 EAGLE Gerber X2 export*
%TF.Part,Single*%
%TF.FileFunction,Profile,NP*%
%TF.FilePolarity,Positive*%
%TF.GenerationSoftware,Autodesk,EAGLE,8.7.0*%
%TF.CreationDate,2018-03-25T19:34:28Z*%
G75*
%MOMM*%
%FSLAX34Y34*%
%LPD*%
%AMOC8*
5,1,8,0,0,1.08239X$1,22.5*%
G01*
%ADD10C,0.254000*%


D10*
X12700Y38100D02*
X12797Y35886D01*
X13086Y33689D01*
X13565Y31526D01*
X14232Y29413D01*
X15080Y27366D01*
X16103Y25400D01*
X17294Y23531D01*
X18642Y21773D01*
X20140Y20140D01*
X21773Y18642D01*
X23531Y17294D01*
X25400Y16103D01*
X27366Y15080D01*
X29413Y14232D01*
X31526Y13565D01*
X33689Y13086D01*
X35886Y12797D01*
X38100Y12700D01*
X552450Y12700D01*
X554664Y12797D01*
X556861Y13086D01*
X559024Y13565D01*
X561137Y14232D01*
X563185Y15080D01*
X565150Y16103D01*
X567019Y17294D01*
X568777Y18642D01*
X570411Y20140D01*
X571908Y21773D01*
X573256Y23531D01*
X574447Y25400D01*
X575470Y27366D01*
X576318Y29413D01*
X576985Y31526D01*
X577464Y33689D01*
X577753Y35886D01*
X577850Y38100D01*
X577850Y469900D01*
X577753Y472114D01*
X577464Y474311D01*
X576985Y476474D01*
X576318Y478587D01*
X575470Y480635D01*
X574447Y482600D01*
X573256Y484469D01*
X571908Y486227D01*
X570411Y487861D01*
X568777Y489358D01*
X567019Y490706D01*
X565150Y491897D01*
X563185Y492920D01*
X561137Y493768D01*
X559024Y494435D01*
X556861Y494914D01*
X554664Y495203D01*
X552450Y495300D01*
X38100Y495300D01*
X35886Y495203D01*
X33689Y494914D01*
X31526Y494435D01*
X29413Y493768D01*
X27366Y492920D01*
X25400Y491897D01*
X23531Y490706D01*
X21773Y489358D01*
X20140Y487861D01*
X18642Y486227D01*
X17294Y484469D01*
X16103Y482600D01*
X15080Y480635D01*
X14232Y478587D01*
X13565Y476474D01*
X13086Y474311D01*
X12797Y472114D01*
X12700Y469900D01*
X12700Y38100D01*
X42100Y469638D02*
X42032Y469118D01*
X41896Y468611D01*
X41695Y468127D01*
X41433Y467673D01*
X41114Y467257D01*
X40743Y466886D01*
X40327Y466567D01*
X39873Y466305D01*
X39389Y466104D01*
X38882Y465968D01*
X38362Y465900D01*
X37838Y465900D01*
X37318Y465968D01*
X36811Y466104D01*
X36327Y466305D01*
X35873Y466567D01*
X35457Y466886D01*
X35086Y467257D01*
X34767Y467673D01*
X34505Y468127D01*
X34304Y468611D01*
X34168Y469118D01*
X34100Y469638D01*
X34100Y470162D01*
X34168Y470682D01*
X34304Y471189D01*
X34505Y471673D01*
X34767Y472127D01*
X35086Y472543D01*
X35457Y472914D01*
X35873Y473233D01*
X36327Y473495D01*
X36811Y473696D01*
X37318Y473832D01*
X37838Y473900D01*
X38362Y473900D01*
X38882Y473832D01*
X39389Y473696D01*
X39873Y473495D01*
X40327Y473233D01*
X40743Y472914D01*
X41114Y472543D01*
X41433Y472127D01*
X41695Y471673D01*
X41896Y471189D01*
X42032Y470682D01*
X42100Y470162D01*
X42100Y469638D01*
X556450Y469638D02*
X556382Y469118D01*
X556246Y468611D01*
X556045Y468127D01*
X555783Y467673D01*
X555464Y467257D01*
X555093Y466886D01*
X554677Y466567D01*
X554223Y466305D01*
X553739Y466104D01*
X553232Y465968D01*
X552712Y465900D01*
X552188Y465900D01*
X551668Y465968D01*
X551161Y466104D01*
X550677Y466305D01*
X550223Y466567D01*
X549807Y466886D01*
X549436Y467257D01*
X549117Y467673D01*
X548855Y468127D01*
X548654Y468611D01*
X548518Y469118D01*
X548450Y469638D01*
X548450Y470162D01*
X548518Y470682D01*
X548654Y471189D01*
X548855Y471673D01*
X549117Y472127D01*
X549436Y472543D01*
X549807Y472914D01*
X550223Y473233D01*
X550677Y473495D01*
X551161Y473696D01*
X551668Y473832D01*
X552188Y473900D01*
X552712Y473900D01*
X553232Y473832D01*
X553739Y473696D01*
X554223Y473495D01*
X554677Y473233D01*
X555093Y472914D01*
X555464Y472543D01*
X555783Y472127D01*
X556045Y471673D01*
X556246Y471189D01*
X556382Y470682D01*
X556450Y470162D01*
X556450Y469638D01*
X556450Y37838D02*
X556382Y37318D01*
X556246Y36811D01*
X556045Y36327D01*
X555783Y35873D01*
X555464Y35457D01*
X555093Y35086D01*
X554677Y34767D01*
X554223Y34505D01*
X553739Y34304D01*
X553232Y34168D01*
X552712Y34100D01*
X552188Y34100D01*
X551668Y34168D01*
X551161Y34304D01*
X550677Y34505D01*
X550223Y34767D01*
X549807Y35086D01*
X549436Y35457D01*
X549117Y35873D01*
X548855Y36327D01*
X548654Y36811D01*
X548518Y37318D01*
X548450Y37838D01*
X548450Y38362D01*
X548518Y38882D01*
X548654Y39389D01*
X548855Y39873D01*
X549117Y40327D01*
X549436Y40743D01*
X549807Y41114D01*
X550223Y41433D01*
X550677Y41695D01*
X551161Y41896D01*
X551668Y42032D01*
X552188Y42100D01*
X552712Y42100D01*
X553232Y42032D01*
X553739Y41896D01*
X554223Y41695D01*
X554677Y41433D01*
X555093Y41114D01*
X555464Y40743D01*
X555783Y40327D01*
X556045Y39873D01*
X556246Y39389D01*
X556382Y38882D01*
X556450Y38362D01*
X556450Y37838D01*
X42100Y37838D02*
X42032Y37318D01*
X41896Y36811D01*
X41695Y36327D01*
X41433Y35873D01*
X41114Y35457D01*
X40743Y35086D01*
X40327Y34767D01*
X39873Y34505D01*
X39389Y34304D01*
X38882Y34168D01*
X38362Y34100D01*
X37838Y34100D01*
X37318Y34168D01*
X36811Y34304D01*
X36327Y34505D01*
X35873Y34767D01*
X35457Y35086D01*
X35086Y35457D01*
X34767Y35873D01*
X34505Y36327D01*
X34304Y36811D01*
X34168Y37318D01*
X34100Y37838D01*
X34100Y38362D01*
X34168Y38882D01*
X34304Y39389D01*
X34505Y39873D01*
X34767Y40327D01*
X35086Y40743D01*
X35457Y41114D01*
X35873Y41433D01*
X36327Y41695D01*
X36811Y41896D01*
X37318Y42032D01*
X37838Y42100D01*
X38362Y42100D01*
X38882Y42032D01*
X39389Y41896D01*
X39873Y41695D01*
X40327Y41433D01*
X40743Y41114D01*
X41114Y40743D01*
X41433Y40327D01*
X41695Y39873D01*
X41896Y39389D01*
X42032Y38882D01*
X42100Y38362D01*
X42100Y37838D01*
X42100Y469638D02*
X42032Y469118D01*
X41896Y468611D01*
X41695Y468127D01*
X41433Y467673D01*
X41114Y467257D01*
X40743Y466886D01*
X40327Y466567D01*
X39873Y466305D01*
X39389Y466104D01*
X38882Y465968D01*
X38362Y465900D01*
X37838Y465900D01*
X37318Y465968D01*
X36811Y466104D01*
X36327Y466305D01*
X35873Y466567D01*
X35457Y466886D01*
X35086Y467257D01*
X34767Y467673D01*
X34505Y468127D01*
X34304Y468611D01*
X34168Y469118D01*
X34100Y469638D01*
X34100Y470162D01*
X34168Y470682D01*
X34304Y471189D01*
X34505Y471673D01*
X34767Y472127D01*
X35086Y472543D01*
X35457Y472914D01*
X35873Y473233D01*
X36327Y473495D01*
X36811Y473696D01*
X37318Y473832D01*
X37838Y473900D01*
X38362Y473900D01*
X38882Y473832D01*
X39389Y473696D01*
X39873Y473495D01*
X40327Y473233D01*
X40743Y472914D01*
X41114Y472543D01*
X41433Y472127D01*
X41695Y471673D01*
X41896Y471189D01*
X42032Y470682D01*
X42100Y470162D01*
X42100Y469638D01*
X556450Y469638D02*
X556382Y469118D01*
X556246Y468611D01*
X556045Y468127D01*
X555783Y467673D01*
X555464Y467257D01*
X555093Y466886D01*
X554677Y466567D01*
X554223Y466305D01*
X553739Y466104D01*
X553232Y465968D01*
X552712Y465900D01*
X552188Y465900D01*
X551668Y465968D01*
X551161Y466104D01*
X550677Y466305D01*
X550223Y466567D01*
X549807Y466886D01*
X549436Y467257D01*
X549117Y467673D01*
X548855Y468127D01*
X548654Y468611D01*
X548518Y469118D01*
X548450Y469638D01*
X548450Y470162D01*
X548518Y470682D01*
X548654Y471189D01*
X548855Y471673D01*
X549117Y472127D01*
X549436Y472543D01*
X549807Y472914D01*
X550223Y473233D01*
X550677Y473495D01*
X551161Y473696D01*
X551668Y473832D01*
X552188Y473900D01*
X552712Y473900D01*
X553232Y473832D01*
X553739Y473696D01*
X554223Y473495D01*
X554677Y473233D01*
X555093Y472914D01*
X555464Y472543D01*
X555783Y472127D01*
X556045Y471673D01*
X556246Y471189D01*
X556382Y470682D01*
X556450Y470162D01*
X556450Y469638D01*
X556450Y37838D02*
X556382Y37318D01*
X556246Y36811D01*
X556045Y36327D01*
X555783Y35873D01*
X555464Y35457D01*
X555093Y35086D01*
X554677Y34767D01*
X554223Y34505D01*
X553739Y34304D01*
X553232Y34168D01*
X552712Y34100D01*
X552188Y34100D01*
X551668Y34168D01*
X551161Y34304D01*
X550677Y34505D01*
X550223Y34767D01*
X549807Y35086D01*
X549436Y35457D01*
X549117Y35873D01*
X548855Y36327D01*
X548654Y36811D01*
X548518Y37318D01*
X548450Y37838D01*
X548450Y38362D01*
X548518Y38882D01*
X548654Y39389D01*
X548855Y39873D01*
X549117Y40327D01*
X549436Y40743D01*
X549807Y41114D01*
X550223Y41433D01*
X550677Y41695D01*
X551161Y41896D01*
X551668Y42032D01*
X552188Y42100D01*
X552712Y42100D01*
X553232Y42032D01*
X553739Y41896D01*
X554223Y41695D01*
X554677Y41433D01*
X555093Y41114D01*
X555464Y40743D01*
X555783Y40327D01*
X556045Y39873D01*
X556246Y39389D01*
X556382Y38882D01*
X556450Y38362D01*
X556450Y37838D01*
X42100Y37838D02*
X42032Y37318D01*
X41896Y36811D01*
X41695Y36327D01*
X41433Y35873D01*
X41114Y35457D01*
X40743Y35086D01*
X40327Y34767D01*
X39873Y34505D01*
X39389Y34304D01*
X38882Y34168D01*
X38362Y34100D01*
X37838Y34100D01*
X37318Y34168D01*
X36811Y34304D01*
X36327Y34505D01*
X35873Y34767D01*
X35457Y35086D01*
X35086Y35457D01*
X34767Y35873D01*
X34505Y36327D01*
X34304Y36811D01*
X34168Y37318D01*
X34100Y37838D01*
X34100Y38362D01*
X34168Y38882D01*
X34304Y39389D01*
X34505Y39873D01*
X34767Y40327D01*
X35086Y40743D01*
X35457Y41114D01*
X35873Y41433D01*
X36327Y41695D01*
X36811Y41896D01*
X37318Y42032D01*
X37838Y42100D01*
X38362Y42100D01*
X38882Y42032D01*
X39389Y41896D01*
X39873Y41695D01*
X40327Y41433D01*
X40743Y41114D01*
X41114Y40743D01*
X41433Y40327D01*
X41695Y39873D01*
X41896Y39389D01*
X42032Y38882D01*
X42100Y38362D01*
X42100Y37838D01*
M02*
