G04 EAGLE Gerber X2 export*
%TF.Part,Single*%
%TF.FileFunction,Legend,Top,1*%
%TF.FilePolarity,Positive*%
%TF.GenerationSoftware,Autodesk,EAGLE,8.7.0*%
%TF.CreationDate,2018-03-25T19:34:28Z*%
G75*
%MOMM*%
%FSLAX34Y34*%
%LPD*%
%AMOC8*
5,1,8,0,0,1.08239X$1,22.5*%
G01*
%ADD10C,0.203200*%
%ADD11C,0.050800*%
%ADD12C,0.127000*%
%ADD13C,0.101600*%


D10*
X258482Y360172D02*
X258482Y373391D01*
X265091Y380001D01*
X271701Y373391D01*
X271701Y360172D01*
X271701Y370086D02*
X258482Y370086D01*
X278595Y360172D02*
X278595Y380001D01*
X288510Y380001D01*
X291814Y376696D01*
X291814Y370086D01*
X288510Y366782D01*
X278595Y366782D01*
X285205Y366782D02*
X291814Y360172D01*
X298709Y360172D02*
X298709Y380001D01*
X298709Y360172D02*
X308623Y360172D01*
X311928Y363477D01*
X311928Y376696D01*
X308623Y380001D01*
X298709Y380001D01*
X318823Y380001D02*
X318823Y363477D01*
X322127Y360172D01*
X328737Y360172D01*
X332042Y363477D01*
X332042Y380001D01*
X338936Y360172D02*
X345546Y360172D01*
X342241Y360172D02*
X342241Y380001D01*
X338936Y380001D02*
X345546Y380001D01*
X352345Y380001D02*
X352345Y360172D01*
X365565Y360172D02*
X352345Y380001D01*
X365565Y380001D02*
X365565Y360172D01*
X375764Y380001D02*
X382373Y380001D01*
X375764Y380001D02*
X372459Y376696D01*
X372459Y363477D01*
X375764Y360172D01*
X382373Y360172D01*
X385678Y363477D01*
X385678Y376696D01*
X382373Y380001D01*
X412686Y380001D02*
X412686Y360172D01*
X425906Y360172D02*
X412686Y380001D01*
X425906Y380001D02*
X425906Y360172D01*
X432800Y360172D02*
X432800Y373391D01*
X439410Y380001D01*
X446019Y373391D01*
X446019Y360172D01*
X446019Y370086D02*
X432800Y370086D01*
X452914Y360172D02*
X452914Y380001D01*
X466133Y360172D01*
X466133Y380001D01*
X476332Y380001D02*
X482942Y380001D01*
X476332Y380001D02*
X473027Y376696D01*
X473027Y363477D01*
X476332Y360172D01*
X482942Y360172D01*
X486246Y363477D01*
X486246Y376696D01*
X482942Y380001D01*
X138303Y343451D02*
X138303Y336841D01*
X138303Y340146D02*
X118474Y340146D01*
X118474Y336841D02*
X118474Y343451D01*
X118474Y360164D02*
X121779Y363469D01*
X118474Y360164D02*
X118474Y353555D01*
X121779Y350250D01*
X134998Y350250D01*
X138303Y353555D01*
X138303Y360164D01*
X134998Y363469D01*
X118474Y380278D02*
X121779Y383583D01*
X118474Y380278D02*
X118474Y373668D01*
X121779Y370364D01*
X125084Y370364D01*
X128389Y373668D01*
X128389Y380278D01*
X131693Y383583D01*
X134998Y383583D01*
X138303Y380278D01*
X138303Y373668D01*
X134998Y370364D01*
X138303Y390477D02*
X118474Y390477D01*
X118474Y400392D01*
X121779Y403697D01*
X128389Y403697D01*
X131693Y400392D01*
X131693Y390477D01*
D11*
X71034Y135509D02*
X67305Y135509D01*
X71034Y135509D02*
X72898Y137373D01*
X71034Y139238D01*
X67305Y139238D01*
X67305Y143918D02*
X68237Y144851D01*
X67305Y143918D02*
X67305Y142054D01*
X68237Y141122D01*
X71966Y141122D01*
X72898Y142054D01*
X72898Y143918D01*
X71966Y144851D01*
X67305Y149532D02*
X68237Y150464D01*
X67305Y149532D02*
X67305Y147667D01*
X68237Y146735D01*
X71966Y146735D01*
X72898Y147667D01*
X72898Y149532D01*
X71966Y150464D01*
X68237Y114600D02*
X67305Y113667D01*
X67305Y111803D01*
X68237Y110871D01*
X71966Y110871D01*
X72898Y111803D01*
X72898Y113667D01*
X71966Y114600D01*
X70102Y114600D01*
X70102Y112735D01*
X72898Y116484D02*
X67305Y116484D01*
X72898Y120213D01*
X67305Y120213D01*
X67305Y122097D02*
X72898Y122097D01*
X72898Y124894D01*
X71966Y125826D01*
X68237Y125826D01*
X67305Y124894D01*
X67305Y122097D01*
X67559Y290197D02*
X68491Y291130D01*
X67559Y290197D02*
X67559Y288333D01*
X68491Y287401D01*
X72220Y287401D01*
X73152Y288333D01*
X73152Y290197D01*
X72220Y291130D01*
X70356Y291130D01*
X70356Y289265D01*
X73152Y293014D02*
X67559Y293014D01*
X73152Y296743D01*
X67559Y296743D01*
X67559Y298627D02*
X73152Y298627D01*
X73152Y301424D01*
X72220Y302356D01*
X68491Y302356D01*
X67559Y301424D01*
X67559Y298627D01*
X67813Y427738D02*
X68745Y428671D01*
X67813Y427738D02*
X67813Y425874D01*
X68745Y424942D01*
X72474Y424942D01*
X73406Y425874D01*
X73406Y427738D01*
X72474Y428671D01*
X70610Y428671D01*
X70610Y426806D01*
X73406Y430555D02*
X67813Y430555D01*
X73406Y434284D01*
X67813Y434284D01*
X67813Y436168D02*
X73406Y436168D01*
X73406Y438965D01*
X72474Y439897D01*
X68745Y439897D01*
X67813Y438965D01*
X67813Y436168D01*
X67559Y312801D02*
X71288Y312801D01*
X73152Y314665D01*
X71288Y316530D01*
X67559Y316530D01*
X67559Y321210D02*
X68491Y322143D01*
X67559Y321210D02*
X67559Y319346D01*
X68491Y318414D01*
X72220Y318414D01*
X73152Y319346D01*
X73152Y321210D01*
X72220Y322143D01*
X67559Y326824D02*
X68491Y327756D01*
X67559Y326824D02*
X67559Y324959D01*
X68491Y324027D01*
X72220Y324027D01*
X73152Y324959D01*
X73152Y326824D01*
X72220Y327756D01*
X71034Y347218D02*
X67305Y347218D01*
X71034Y347218D02*
X72898Y349082D01*
X71034Y350947D01*
X67305Y350947D01*
X67305Y355627D02*
X68237Y356560D01*
X67305Y355627D02*
X67305Y353763D01*
X68237Y352831D01*
X71966Y352831D01*
X72898Y353763D01*
X72898Y355627D01*
X71966Y356560D01*
X67305Y361241D02*
X68237Y362173D01*
X67305Y361241D02*
X67305Y359376D01*
X68237Y358444D01*
X71966Y358444D01*
X72898Y359376D01*
X72898Y361241D01*
X71966Y362173D01*
X73406Y267421D02*
X73406Y265557D01*
X73406Y266489D02*
X67813Y266489D01*
X67813Y265557D02*
X67813Y267421D01*
X67813Y269299D02*
X73406Y269299D01*
X73406Y273028D02*
X67813Y269299D01*
X67813Y273028D02*
X73406Y273028D01*
X73152Y371942D02*
X67559Y371942D01*
X67559Y370078D02*
X67559Y373807D01*
X67559Y375691D02*
X73152Y375691D01*
X67559Y375691D02*
X67559Y378487D01*
X68491Y379420D01*
X70356Y379420D01*
X71288Y378487D01*
X71288Y375691D01*
X71288Y377555D02*
X73152Y379420D01*
X73152Y381304D02*
X73152Y383168D01*
X73152Y382236D02*
X67559Y382236D01*
X67559Y381304D02*
X67559Y383168D01*
X67559Y387843D02*
X68491Y388775D01*
X67559Y387843D02*
X67559Y385978D01*
X68491Y385046D01*
X72220Y385046D01*
X73152Y385978D01*
X73152Y387843D01*
X72220Y388775D01*
X70356Y388775D01*
X70356Y386911D01*
X67813Y396240D02*
X67813Y399969D01*
X67813Y396240D02*
X73406Y396240D01*
X73406Y399969D01*
X70610Y398104D02*
X70610Y396240D01*
X67813Y404649D02*
X68745Y405582D01*
X67813Y404649D02*
X67813Y402785D01*
X68745Y401853D01*
X72474Y401853D01*
X73406Y402785D01*
X73406Y404649D01*
X72474Y405582D01*
X73406Y407466D02*
X67813Y407466D01*
X70610Y407466D02*
X70610Y411195D01*
X73406Y411195D02*
X67813Y411195D01*
X67813Y414011D02*
X67813Y415876D01*
X67813Y414011D02*
X68745Y413079D01*
X72474Y413079D01*
X73406Y414011D01*
X73406Y415876D01*
X72474Y416808D01*
X68745Y416808D01*
X67813Y415876D01*
X67813Y87757D02*
X73406Y87757D01*
X73406Y90553D01*
X72474Y91486D01*
X68745Y91486D01*
X67813Y90553D01*
X67813Y87757D01*
X67813Y94302D02*
X67813Y96166D01*
X67813Y94302D02*
X68745Y93370D01*
X72474Y93370D01*
X73406Y94302D01*
X73406Y96166D01*
X72474Y97099D01*
X68745Y97099D01*
X67813Y96166D01*
X69424Y60579D02*
X73152Y60579D01*
X69424Y60579D02*
X67559Y62443D01*
X69424Y64308D01*
X73152Y64308D01*
X70356Y64308D02*
X70356Y60579D01*
X67559Y67124D02*
X67559Y68988D01*
X67559Y67124D02*
X68491Y66192D01*
X72220Y66192D01*
X73152Y67124D01*
X73152Y68988D01*
X72220Y69921D01*
X68491Y69921D01*
X67559Y68988D01*
X67305Y195834D02*
X71034Y195834D01*
X72898Y197698D01*
X71034Y199563D01*
X67305Y199563D01*
X67305Y204243D02*
X68237Y205176D01*
X67305Y204243D02*
X67305Y202379D01*
X68237Y201447D01*
X71966Y201447D01*
X72898Y202379D01*
X72898Y204243D01*
X71966Y205176D01*
X67305Y209857D02*
X68237Y210789D01*
X67305Y209857D02*
X67305Y207992D01*
X68237Y207060D01*
X71966Y207060D01*
X72898Y207992D01*
X72898Y209857D01*
X71966Y210789D01*
X68491Y173655D02*
X67559Y172722D01*
X67559Y170858D01*
X68491Y169926D01*
X72220Y169926D01*
X73152Y170858D01*
X73152Y172722D01*
X72220Y173655D01*
X70356Y173655D01*
X70356Y171790D01*
X73152Y175539D02*
X67559Y175539D01*
X73152Y179268D01*
X67559Y179268D01*
X67559Y181152D02*
X73152Y181152D01*
X73152Y183949D01*
X72220Y184881D01*
X68491Y184881D01*
X67559Y183949D01*
X67559Y181152D01*
X67813Y223903D02*
X68745Y224836D01*
X67813Y223903D02*
X67813Y222039D01*
X68745Y221107D01*
X69678Y221107D01*
X70610Y222039D01*
X70610Y223903D01*
X71542Y224836D01*
X72474Y224836D01*
X73406Y223903D01*
X73406Y222039D01*
X72474Y221107D01*
X73406Y226720D02*
X73406Y228584D01*
X73406Y227652D02*
X67813Y227652D01*
X67813Y226720D02*
X67813Y228584D01*
X67813Y233259D02*
X68745Y234191D01*
X67813Y233259D02*
X67813Y231394D01*
X68745Y230462D01*
X72474Y230462D01*
X73406Y231394D01*
X73406Y233259D01*
X72474Y234191D01*
X70610Y234191D01*
X70610Y232326D01*
D12*
X453550Y124225D02*
X473550Y124225D01*
X474161Y124478D01*
X474765Y124746D01*
X475362Y125028D01*
X475952Y125325D01*
X476535Y125637D01*
X477110Y125963D01*
X477677Y126302D01*
X478235Y126656D01*
X478785Y127023D01*
X479325Y127404D01*
X479856Y127797D01*
X480376Y128204D01*
X480887Y128623D01*
X481388Y129055D01*
X481877Y129499D01*
X482356Y129955D01*
X482823Y130422D01*
X483279Y130900D01*
X483722Y131390D01*
X484154Y131891D01*
X484573Y132401D01*
X484980Y132922D01*
X485373Y133453D01*
X485754Y133993D01*
X486121Y134543D01*
X486474Y135101D01*
X486814Y135668D01*
X487140Y136243D01*
X487451Y136826D01*
X487748Y137416D01*
X488031Y138014D01*
X488299Y138618D01*
X488552Y139228D01*
X488789Y139845D01*
X489012Y140467D01*
X489219Y141095D01*
X489411Y141727D01*
X489587Y142364D01*
X489748Y143005D01*
X489892Y143650D01*
X490021Y144298D01*
X490134Y144949D01*
X490231Y145603D01*
X490312Y146258D01*
X490377Y146916D01*
X490425Y147575D01*
X490458Y148235D01*
X490474Y148896D01*
X490474Y149557D01*
X490458Y150217D01*
X490425Y150877D01*
X490377Y151536D01*
X490312Y152194D01*
X490231Y152850D01*
X490134Y153503D01*
X490021Y154155D01*
X489892Y154803D01*
X489747Y155447D01*
X489587Y156088D01*
X489410Y156725D01*
X489218Y157358D01*
X489011Y157985D01*
X488788Y158607D01*
X488551Y159224D01*
X488298Y159834D01*
X488030Y160439D01*
X487747Y161036D01*
X487450Y161626D01*
X487139Y162209D01*
X486813Y162784D01*
X486473Y163351D01*
X486120Y163909D01*
X485752Y164459D01*
X485372Y164999D01*
X484978Y165530D01*
X484572Y166051D01*
X484152Y166561D01*
X483721Y167062D01*
X483277Y167551D01*
X482821Y168030D01*
X482354Y168497D01*
X481875Y168953D01*
X481386Y169397D01*
X480885Y169828D01*
X480375Y170247D01*
X479854Y170654D01*
X479323Y171048D01*
X478783Y171428D01*
X478233Y171795D01*
X477675Y172149D01*
X477108Y172489D01*
X476533Y172814D01*
X475950Y173126D01*
X475360Y173423D01*
X474762Y173705D01*
X474158Y173973D01*
X473548Y174226D01*
X472931Y174464D01*
X472309Y174687D01*
X471682Y174894D01*
X471049Y175086D01*
X470412Y175262D01*
X469771Y175422D01*
X469127Y175567D01*
X468478Y175696D01*
X467827Y175809D01*
X467174Y175906D01*
X466518Y175987D01*
X465860Y176052D01*
X465201Y176100D01*
X464541Y176133D01*
X463880Y176149D01*
X463220Y176149D01*
X462559Y176133D01*
X461899Y176100D01*
X461240Y176052D01*
X460582Y175987D01*
X459926Y175906D01*
X459273Y175809D01*
X458622Y175696D01*
X457973Y175567D01*
X457329Y175422D01*
X456688Y175262D01*
X456051Y175086D01*
X455418Y174894D01*
X454791Y174687D01*
X454169Y174464D01*
X453552Y174226D01*
X452942Y173973D01*
X452338Y173705D01*
X451740Y173423D01*
X451150Y173126D01*
X450567Y172814D01*
X449992Y172489D01*
X449425Y172149D01*
X448867Y171795D01*
X448317Y171428D01*
X447777Y171048D01*
X447246Y170654D01*
X446725Y170247D01*
X446215Y169828D01*
X445714Y169397D01*
X445225Y168953D01*
X444746Y168497D01*
X444279Y168030D01*
X443823Y167551D01*
X443379Y167062D01*
X442948Y166561D01*
X442528Y166051D01*
X442122Y165530D01*
X441728Y164999D01*
X441348Y164459D01*
X440980Y163909D01*
X440627Y163351D01*
X440287Y162784D01*
X439961Y162209D01*
X439650Y161626D01*
X439353Y161036D01*
X439070Y160439D01*
X438802Y159834D01*
X438549Y159224D01*
X438312Y158607D01*
X438089Y157985D01*
X437882Y157358D01*
X437690Y156725D01*
X437513Y156088D01*
X437353Y155447D01*
X437208Y154803D01*
X437079Y154155D01*
X436966Y153503D01*
X436869Y152850D01*
X436788Y152194D01*
X436723Y151536D01*
X436675Y150877D01*
X436642Y150217D01*
X436626Y149557D01*
X436626Y148896D01*
X436642Y148235D01*
X436675Y147575D01*
X436723Y146916D01*
X436788Y146258D01*
X436869Y145603D01*
X436966Y144949D01*
X437079Y144298D01*
X437208Y143650D01*
X437352Y143005D01*
X437513Y142364D01*
X437689Y141727D01*
X437881Y141095D01*
X438088Y140467D01*
X438311Y139845D01*
X438548Y139228D01*
X438801Y138618D01*
X439069Y138014D01*
X439352Y137416D01*
X439649Y136826D01*
X439960Y136243D01*
X440286Y135668D01*
X440626Y135101D01*
X440979Y134543D01*
X441346Y133993D01*
X441727Y133453D01*
X442120Y132922D01*
X442527Y132401D01*
X442946Y131891D01*
X443378Y131390D01*
X443821Y130900D01*
X444277Y130422D01*
X444744Y129955D01*
X445223Y129499D01*
X445712Y129055D01*
X446213Y128623D01*
X446724Y128204D01*
X447244Y127797D01*
X447775Y127404D01*
X448315Y127023D01*
X448865Y126656D01*
X449423Y126302D01*
X449990Y125963D01*
X450565Y125637D01*
X451148Y125325D01*
X451738Y125028D01*
X452335Y124746D01*
X452939Y124478D01*
X453550Y124225D01*
X492756Y144247D02*
X497586Y144247D01*
X497586Y146662D01*
X496781Y147467D01*
X493561Y147467D01*
X492756Y146662D01*
X492756Y144247D01*
X494366Y149860D02*
X492756Y151470D01*
X497586Y151470D01*
X497586Y149860D02*
X497586Y153080D01*
D10*
X38100Y425450D02*
X38100Y438150D01*
X44450Y444500D01*
X57150Y444500D02*
X63500Y438150D01*
X38100Y400050D02*
X44450Y393700D01*
X38100Y400050D02*
X38100Y412750D01*
X44450Y419100D01*
X57150Y419100D02*
X63500Y412750D01*
X63500Y400050D01*
X57150Y393700D01*
X44450Y419100D02*
X38100Y425450D01*
X57150Y419100D02*
X63500Y425450D01*
X63500Y438150D01*
X38100Y361950D02*
X38100Y349250D01*
X38100Y361950D02*
X44450Y368300D01*
X57150Y368300D02*
X63500Y361950D01*
X44450Y368300D02*
X38100Y374650D01*
X38100Y387350D01*
X44450Y393700D01*
X57150Y393700D02*
X63500Y387350D01*
X63500Y374650D01*
X57150Y368300D01*
X57150Y342900D02*
X44450Y342900D01*
X38100Y349250D01*
X57150Y342900D02*
X63500Y349250D01*
X63500Y361950D01*
X57150Y444500D02*
X44450Y444500D01*
D12*
X36195Y343535D02*
X31365Y343535D01*
X33780Y343535D02*
X33780Y346755D01*
X31365Y346755D02*
X36195Y346755D01*
X31365Y351563D02*
X32170Y352368D01*
X31365Y351563D02*
X31365Y349953D01*
X32170Y349148D01*
X35390Y349148D01*
X36195Y349953D01*
X36195Y351563D01*
X35390Y352368D01*
X33780Y354761D02*
X33780Y357981D01*
X35390Y360374D02*
X32170Y360374D01*
X31365Y361179D01*
X31365Y362789D01*
X32170Y363594D01*
X35390Y363594D01*
X36195Y362789D01*
X36195Y361179D01*
X35390Y360374D01*
X32170Y363594D01*
X31365Y368402D02*
X36195Y368402D01*
X33780Y365987D02*
X31365Y368402D01*
X33780Y369207D02*
X33780Y365987D01*
D10*
X38100Y149225D02*
X38100Y136525D01*
X38100Y149225D02*
X44450Y155575D01*
X57150Y155575D02*
X63500Y149225D01*
X38100Y111125D02*
X44450Y104775D01*
X38100Y111125D02*
X38100Y123825D01*
X44450Y130175D01*
X57150Y130175D02*
X63500Y123825D01*
X63500Y111125D01*
X57150Y104775D01*
X44450Y130175D02*
X38100Y136525D01*
X57150Y130175D02*
X63500Y136525D01*
X63500Y149225D01*
X38100Y73025D02*
X38100Y60325D01*
X38100Y73025D02*
X44450Y79375D01*
X57150Y79375D02*
X63500Y73025D01*
X44450Y79375D02*
X38100Y85725D01*
X38100Y98425D01*
X44450Y104775D01*
X57150Y104775D02*
X63500Y98425D01*
X63500Y85725D01*
X57150Y79375D01*
X57150Y53975D02*
X44450Y53975D01*
X38100Y60325D01*
X57150Y53975D02*
X63500Y60325D01*
X63500Y73025D01*
X57150Y155575D02*
X44450Y155575D01*
D12*
X36195Y54610D02*
X31365Y54610D01*
X32975Y56220D01*
X31365Y57830D01*
X36195Y57830D01*
X31365Y61028D02*
X31365Y62638D01*
X31365Y61028D02*
X32170Y60223D01*
X35390Y60223D01*
X36195Y61028D01*
X36195Y62638D01*
X35390Y63443D01*
X32170Y63443D01*
X31365Y62638D01*
X36195Y65836D02*
X36195Y67446D01*
X36195Y66641D02*
X31365Y66641D01*
X31365Y65836D02*
X31365Y67446D01*
X31365Y71993D02*
X32170Y72798D01*
X31365Y71993D02*
X31365Y70383D01*
X32170Y69578D01*
X32975Y69578D01*
X33780Y70383D01*
X33780Y71993D01*
X34585Y72798D01*
X35390Y72798D01*
X36195Y71993D01*
X36195Y70383D01*
X35390Y69578D01*
X36195Y76801D02*
X31365Y76801D01*
X31365Y75191D02*
X31365Y78411D01*
X31365Y80804D02*
X35390Y80804D01*
X36195Y81609D01*
X36195Y83220D01*
X35390Y84025D01*
X31365Y84025D01*
X31365Y86418D02*
X36195Y86418D01*
X31365Y86418D02*
X31365Y88833D01*
X32170Y89638D01*
X33780Y89638D01*
X34585Y88833D01*
X34585Y86418D01*
X34585Y88028D02*
X36195Y89638D01*
X31365Y92031D02*
X31365Y95251D01*
X31365Y92031D02*
X36195Y92031D01*
X36195Y95251D01*
X33780Y93641D02*
X33780Y92031D01*
D10*
X315595Y130175D02*
X315595Y180975D01*
X315595Y130175D02*
X307975Y130175D01*
X300355Y130175D01*
X300355Y180975D01*
X307975Y180975D01*
X315595Y180975D01*
X307975Y130175D02*
X307975Y127635D01*
X307975Y180975D02*
X307975Y183515D01*
D12*
X318766Y150597D02*
X323596Y150597D01*
X318766Y150597D02*
X318766Y153012D01*
X319571Y153817D01*
X321181Y153817D01*
X321986Y153012D01*
X321986Y150597D01*
X321986Y152207D02*
X323596Y153817D01*
X320376Y156210D02*
X318766Y157820D01*
X323596Y157820D01*
X323596Y156210D02*
X323596Y159430D01*
D10*
X277495Y180975D02*
X277495Y130175D01*
X269875Y130175D01*
X262255Y130175D01*
X262255Y180975D01*
X269875Y180975D01*
X277495Y180975D01*
X269875Y130175D02*
X269875Y127635D01*
X269875Y180975D02*
X269875Y183515D01*
D12*
X280666Y150597D02*
X285496Y150597D01*
X280666Y150597D02*
X280666Y153012D01*
X281471Y153817D01*
X283081Y153817D01*
X283886Y153012D01*
X283886Y150597D01*
X283886Y152207D02*
X285496Y153817D01*
X285496Y156210D02*
X285496Y159430D01*
X285496Y156210D02*
X282276Y159430D01*
X281471Y159430D01*
X280666Y158625D01*
X280666Y157015D01*
X281471Y156210D01*
D10*
X353695Y180975D02*
X353695Y130175D01*
X346075Y130175D01*
X338455Y130175D01*
X338455Y180975D01*
X346075Y180975D01*
X353695Y180975D01*
X346075Y130175D02*
X346075Y127635D01*
X346075Y180975D02*
X346075Y183515D01*
D12*
X356866Y150597D02*
X361696Y150597D01*
X356866Y150597D02*
X356866Y153012D01*
X357671Y153817D01*
X359281Y153817D01*
X360086Y153012D01*
X360086Y150597D01*
X360086Y152207D02*
X361696Y153817D01*
X357671Y156210D02*
X356866Y157015D01*
X356866Y158625D01*
X357671Y159430D01*
X358476Y159430D01*
X359281Y158625D01*
X359281Y157820D01*
X359281Y158625D02*
X360086Y159430D01*
X360891Y159430D01*
X361696Y158625D01*
X361696Y157015D01*
X360891Y156210D01*
D10*
X44450Y307975D02*
X38100Y314325D01*
X38100Y327025D01*
X44450Y333375D01*
X57150Y333375D02*
X63500Y327025D01*
X63500Y314325D01*
X57150Y307975D01*
X38100Y276225D02*
X38100Y263525D01*
X38100Y276225D02*
X44450Y282575D01*
X57150Y282575D02*
X63500Y276225D01*
X44450Y282575D02*
X38100Y288925D01*
X38100Y301625D01*
X44450Y307975D01*
X57150Y307975D02*
X63500Y301625D01*
X63500Y288925D01*
X57150Y282575D01*
X57150Y257175D02*
X44450Y257175D01*
X38100Y263525D01*
X57150Y257175D02*
X63500Y263525D01*
X63500Y276225D01*
X57150Y333375D02*
X44450Y333375D01*
D12*
X36195Y257810D02*
X31365Y257810D01*
X31365Y260225D01*
X32170Y261030D01*
X33780Y261030D01*
X34585Y260225D01*
X34585Y257810D01*
X34585Y259420D02*
X36195Y261030D01*
X31365Y263423D02*
X31365Y266643D01*
X31365Y263423D02*
X36195Y263423D01*
X36195Y266643D01*
X33780Y265033D02*
X33780Y263423D01*
X31365Y269036D02*
X36195Y269036D01*
X36195Y272256D01*
X36195Y274649D02*
X32975Y274649D01*
X31365Y276259D01*
X32975Y277869D01*
X36195Y277869D01*
X33780Y277869D02*
X33780Y274649D01*
X32170Y280262D02*
X31365Y280262D01*
X32170Y280262D02*
X33780Y281872D01*
X32170Y283482D01*
X31365Y283482D01*
X33780Y281872D02*
X36195Y281872D01*
D13*
X106148Y118383D02*
X113944Y118383D01*
X117842Y122281D01*
X113944Y126179D01*
X106148Y126179D01*
X117842Y130077D02*
X117842Y133975D01*
X117842Y132026D02*
X106148Y132026D01*
X106148Y130077D02*
X106148Y133975D01*
X106148Y137873D02*
X117842Y137873D01*
X117842Y145669D02*
X106148Y137873D01*
X106148Y145669D02*
X117842Y145669D01*
X160123Y124230D02*
X162072Y126179D01*
X160123Y124230D02*
X160123Y120332D01*
X162072Y118383D01*
X169868Y118383D01*
X171817Y120332D01*
X171817Y124230D01*
X169868Y126179D01*
X165970Y126179D01*
X165970Y122281D01*
X171817Y130077D02*
X160123Y130077D01*
X171817Y137873D01*
X160123Y137873D01*
X160123Y141771D02*
X171817Y141771D01*
X171817Y147618D01*
X169868Y149567D01*
X162072Y149567D01*
X160123Y147618D01*
X160123Y141771D01*
D10*
X44450Y215900D02*
X38100Y222250D01*
X38100Y234950D01*
X44450Y241300D01*
X57150Y241300D02*
X63500Y234950D01*
X63500Y222250D01*
X57150Y215900D01*
X38100Y184150D02*
X38100Y171450D01*
X38100Y184150D02*
X44450Y190500D01*
X57150Y190500D02*
X63500Y184150D01*
X44450Y190500D02*
X38100Y196850D01*
X38100Y209550D01*
X44450Y215900D01*
X57150Y215900D02*
X63500Y209550D01*
X63500Y196850D01*
X57150Y190500D01*
X57150Y165100D02*
X44450Y165100D01*
X38100Y171450D01*
X57150Y165100D02*
X63500Y171450D01*
X63500Y184150D01*
X57150Y241300D02*
X44450Y241300D01*
D12*
X36195Y165735D02*
X31365Y165735D01*
X34585Y167345D02*
X36195Y165735D01*
X34585Y167345D02*
X36195Y168955D01*
X31365Y168955D01*
X32975Y171348D02*
X36195Y171348D01*
X32975Y171348D02*
X31365Y172958D01*
X32975Y174568D01*
X36195Y174568D01*
X33780Y174568D02*
X33780Y171348D01*
X36195Y178571D02*
X31365Y178571D01*
X31365Y176961D02*
X31365Y180181D01*
X31365Y182574D02*
X31365Y185794D01*
X31365Y182574D02*
X36195Y182574D01*
X36195Y185794D01*
X33780Y184184D02*
X33780Y182574D01*
X36195Y188187D02*
X31365Y188187D01*
X31365Y190602D01*
X32170Y191407D01*
X33780Y191407D01*
X34585Y190602D01*
X34585Y188187D01*
X34585Y189797D02*
X36195Y191407D01*
X37000Y193800D02*
X37000Y197021D01*
X36195Y199414D02*
X31365Y199414D01*
X36195Y199414D02*
X36195Y202634D01*
X31365Y205027D02*
X31365Y208247D01*
X31365Y205027D02*
X36195Y205027D01*
X36195Y208247D01*
X33780Y206637D02*
X33780Y205027D01*
X34585Y210640D02*
X31365Y210640D01*
X34585Y210640D02*
X36195Y212250D01*
X34585Y213860D01*
X31365Y213860D01*
X31365Y216253D02*
X31365Y219473D01*
X31365Y216253D02*
X36195Y216253D01*
X36195Y219473D01*
X33780Y217863D02*
X33780Y216253D01*
X31365Y221866D02*
X36195Y221866D01*
X36195Y225086D01*
M02*
